<mxfile host="65bd71144e">
    <diagram id="C5RBs43oDa-KdzZeNtuy" name="Page-1">
        <mxGraphModel dx="1057" dy="1854" grid="1" gridSize="10" guides="1" tooltips="1" connect="1" arrows="1" fold="1" page="1" pageScale="1" pageWidth="827" pageHeight="1169" background="#FFFFFF" math="0" shadow="0">
            <root>
                <mxCell id="WIyWlLk6GJQsqaUBKTNV-0"/>
                <mxCell id="WIyWlLk6GJQsqaUBKTNV-1" parent="WIyWlLk6GJQsqaUBKTNV-0"/>
                <mxCell id="UGwLT5LjvOKNq53BJIgy-4" value="" style="edgeStyle=orthogonalEdgeStyle;rounded=0;orthogonalLoop=1;jettySize=auto;html=1;" parent="WIyWlLk6GJQsqaUBKTNV-1" source="UGwLT5LjvOKNq53BJIgy-1" target="UGwLT5LjvOKNq53BJIgy-3" edge="1">
                    <mxGeometry relative="1" as="geometry"/>
                </mxCell>
                <mxCell id="UGwLT5LjvOKNq53BJIgy-1" value="&lt;h2&gt;Signup&lt;/h2&gt;" style="whiteSpace=wrap;html=1;rounded=0;" parent="WIyWlLk6GJQsqaUBKTNV-1" vertex="1">
                    <mxGeometry x="160" y="-10" width="120" height="60" as="geometry"/>
                </mxCell>
                <mxCell id="UGwLT5LjvOKNq53BJIgy-2" value="" style="shape=image;verticalLabelPosition=bottom;labelBackgroundColor=default;verticalAlign=top;aspect=fixed;imageAspect=0;image=data:image/png,iVBORw0KGgoAAAANSUhEUgAAAo8AAAHqCAYAAABlQaQPAAAAAXNSR0IArs4c6QAAAARnQU1BAACxjwv8YQUAAAAJcEhZcwAADsMAAA7DAcdvqGQAAH25SURBVHhe7d0JYF1VnT/wb/Z935dmaZo2adp036AsLSgoi4oKOuBfwRFHGXGpu4jAMIo6qKCioA44iKMwLAJFoNCWLrSle5s2TZo0e5p939f/+Z13b/rympd3X5qEtP1+nDfvvbueu5T7fefcc+NRVVU1DCKiadWFk69X4cmt/eg2/gvkE+aD7KVBWL0gDMlh3ggJ8dPDBzo70d3chcN5bdi5sxc1fXowEOCDG++cjXWJXsYAGl8vdjxRjOeL1cfgIHz1h6lIs40gInILwyMRTa/ORjz/eC121Nq+BqQF4RMfT8LSWG/bgPEMdSL/lUo8+e4g+uV7QADuvDcd2Z56LI2rFk9+txFH5L/42VH45efibIOJiNzE8EhE06dTBZj/UgGmS3329sLazyTj41lBtnGWDaLy9SI8vGVQfwu9JB73fyRSfx7XQA8qT7Ygv7ALle3qe4gPli0Ix/z0EHiPEz4bi2twsll98PRFztJIhKj1D1Q3Ycvedtty4IXsDyZh9ajwq6ZpaMG+fW3Ib7D9JzY0MQRrL49BnIWMjKFeNJa04GRZD/KrZTu9kJwViOzsCCQHOV/ASFnhg8zlUYjSQw2lZfjR7zrRpj5mfjQDX15jq9klInIXwyMRTY+hFrz2i2psqlefA/xxy4ZUrA6ZaJNzOzY9UoHXqtVH3wDc+R/pyLaNONtAK3a/WIOX9w+ONJGPEuiDD9yWhA9nBBoD7LXjtf+qsJU5KQwPfDkAu/9Qi9dKHRfkgdxbZ+P2XBXI2uvx2l8asOmsaRRpav9SJtY5q/RzVVYlank0NnwyFgHG9zPsyhoVjO9+OwX2q6l9swAPvS1B1BMf+EYWPsyKRyKaIDb2ENE06MKB/zk9fnDsa0H+5jI8+ZdiPPxoMZ58rhwH6gbUiHac3FeD3eplq1UTIVi72qg56+vB8VLbx7M0VOMP/1mFv+8zwpi3B0KDbS8fD9sk6OrHpj+oIGo0o4/S3Y5SKbMSlTSEf/ysRgfHAGMZASOVgMM4srUBjdVVePTheh0cfQKMddmnvO5+vPxyDbqNr6PIvA/alVWVz1yP/TIa9zXgsXd0ledodmUNzQwaFRzlfseTpbaaWgQHYD6DIxGdA9Y8EtGU695XjB8914t++xq6EWd3njnDA/PX+aN2SzcaHWvMWqvw8I9bUak+zv/0fHxhsW3wiOoK/PS37aiR/Bnggw/cEo8PZodgJO8NtGLHk9V4vshY6Vj3AR45ha8/06M/BqgwiJQwfPm2OCT7GsF3oAkv/6oGW3Ro80Ro2BDa+v3w8S8kY22iuY2DaN9Xhp8812MLjR7+uP2h2cjV4wzV5fjpox2o0aHRA+lXRuHWq2MRNVJYh2VILejdSSpC27Er6/xPz1P7wz6c835HIpo8rHkkoqk1VI/nX5XgqALY0ujRwXGoBVt+W4bHttiCY2iSH3IX+utXZoxMMIzjOjgqjjVmYd4INT421TnUxKl1/uUJIzjGBOHL38rEh+2Do/AOw9rbIpBp1kAWdyHf+GgqLe41PilpkfjhHYlngqPwjsSNH/Q3vqjg2OePz3wzwy44Ci+ELI/CWvMGRLWdUix77W0eiIyV2lAvrPtSJu6+1j44CllGGJYFG197BlXkHu1MWX2QPc+hVre0B2Yreua8cNsHIqIJYngkoinVuKUJ+6W6zMMHH75eJ0KDrSn75XKVagL88PENc3H/3Rm4/bbZ+vXlb87Dhsvt/hM1y9/po2UiY+3r4AaR/1zDyDo//qVUZDrrkxMQgdzZxue+YYfm5HYcLzYSl28APvP/4sa4z1AZMt6VzGvisdRV/58YHyQZH00hWbPwhW9k42c/noMbU0elRjtD6DYfUxR+Jjjb2JU1yg+ZDgWtLezRHWXkP/lps+2DLRGR+xgeiWgKNWHrHtu9dj65YVhrF6y6D9Xgb/kq8EjA+1YG1p71qB4vJC8PHOkxfFaNWbfxuB54yG2UZzTX4LWDtiCV/IH4Ues8mx8CfY2PjuzvIVwa6vRxQKUlZ2r8cheP1elG6e5Eqa4+VVOpEOy00djTocbQTnd+B04a4TEqJWh0kOX9jkQ0jRgeiWjqnGjFnlb54IlVl8bqQTZNeO21Hh3+kj/kKuCJMWrMynph6yfjjbRU/UEr3daOSp0dPTBwqh5P/uXUOK9ibDI720R4w76EONmDk8bH5HRnTb2dKKlwXuM3YqSsEoLHe6zQIAbaW3HySA12vF6iy/fwQ/n40X3H8f2nuo3aQw9kZ4XpTyPGLWsLTp4yPo5Te0tEZBXDIxFNmdJ8W0CUGq9ldgFvJFR6+GPdZaO6fYxWOzD2/Y5KbantPkokBWLRSGhrxfECsx15GDVFPThydLxXL2rMtuokPyQbH8W49xCauluRX2X7eHaN3xkj+0Eta0762csaqKvFa08V4Ps/KMC3HqzCY8804fkt3bp8lc3DaLNvT/fwQ3qK8dnA+x2JaDoxPBLRFFFB7qQttfjMDRxV41Wpwo4OU7P9x/3rMCOh6Kwas3YcMUJi1NzgM72O7ZqH4Ws85sbiKzfbPliNfw/hCLsaRau1k/NHVRoOoPR1FRofbsSm/EF0S08a/YgeTyTP80fuJSG45dY4fPfeGKw1O8uctc94vyMRTS+GRyKaGnZBLi3FvnvHICprjdrBAK+xO6FojdifZwtFZ9WYNbfgiDwgXP0nbOkSuzRW2w/zcY3zPzIX9/8w2/Lr9uV2wWrcewjPsK9RtFI76ZMaMGpZ3btK8MgW272bPlH++Pids/Dzh+bjxz/MwoY7ZuP2j8zC6twoxHX2oKjDNg/vdySi9xvDIxFNjZEg54G4BPsarw40Ndg+hQY761msMtGhVuzRgensGrPGA136+Y5IDMIq+0DUMmjUsinezjufuDQt9zvW4+U3bNFT/iLM3d+cjbUZDo8TMjQe7UKN/sT7HYno/cfwSERTYyTIeSBgVLDyHukd3VbfO/ZfW+msxV9eOnO/5Kgas6F6/HO7rTYtc3Xs6L/f7O8BH+NjbY3uqeNcdR12F7djwO5RO6Zpud+xtAvHjY1PXhWFZGf/NbbbXt7vSEQzAcMjEU2zIKTPMp7MXdyKv+zrtH3WBjFQXY0//FfjSLBC3xC6RwKePBvSeIZjTAg+vsrhHr4E35EQ13igBaVjBENNhdM/PNGAvz9RgW/96BSOmM9P1Kbpfke7WtIAXyc1sANN2PQ7Y3sF73ckohmA4ZGIptyAUXFmSrskyKgxHMbx58rw7fvy8aP/yMf3f1iAbz3SguM+QVg7T0+gwmM3nv51sX60zmM/K8XT8mzIAD/c8vlZZ9f2hUXj0jnG59ZOPPLQKeywq10c6GzFyXdP4cEfG+HUwwO5H49Hrv2zHqfpfkf7WtKTb1RiR2XPmb8809eJyj0lePg/a/BatREOFd7vSEQzAcMjEU2Nkf+6DKGyzGxaNcQl4auf9If8uWjR3z2Mto5h/RdUAtKC8eWvpuLDlwQg1BjfXd2rH61zUjrgBPrh4/+ehtURtnGj+WH1v0RhvpmwWnvwvNQufu84vv6d4/jWA1V47B89aJSU5u2FtV9Ixe2OD/aeruc7zg3FKrMmsrsXz//6FL6lyijl/PoPy/DwC92ohD9u+aBZY8j7HYloZmB4JKKpkXrmuYkn85od7m2Uv9U8Gz9+cBa+fGskbvmkvGKw4d65+PGXUvSfEwzISsf9DyTizk+GYK38vetLQnC79Eb+UQbWRo/TGSYoDl/YEIMPZHiO1OyN4uuF+eui8N375+HjGWf/RZhpe76jZxQ+fmckckfdtGnw8EDy8kh89wezEVZjtKnzfkcimiE8qqqqzrSJEBFNmnZseqQCr+lH6nhg2e1zcVvWOKFvKvR1or2uC8dqBhEYEYD0WH+EhMy0e//kr8p0oKSkG40qJ4bFhyAzMQje/GlPRDMUwyMRTZnuI6fwH8/02GodA3xw452zsS5xmgMkERFNKv62JaIpE5Abj09kmzcu9uPlRwvx6Ot1tnsOXRnoQWVZy9iP8iEiovcNax6JaGoNdeLIcxV48oDdc3PkT/DF+iEzwxfZSfZ3Jvaj6kQfiop7UdOlvgYH4as/TGVnDyKiGYThkYimwSDaT1Tjb6+247jxaBkrAuKCcec3UhgeiYhmEIZHIppWA50tOJmvQuSJfjQ19aGy1fhPkI83kpO9EJkYiPlzQ5AWH4QA53+9kIiI3icMj0RERERkGTvMEBEREZFlDI9EREREZBnDIxERERFZxvBIRERERJYxPBIRERGRZQyPRERERGQZwyMRERERWcbwSERERESWMTwSERERkWUMj0RERERkGcMjEREREVnG8EhEREREljE8EhEREZFlDI9EREREZBnDIxERERFZxvBIRERERJYxPBIRERGRZQyPRERERGQZwyMRERERWcbwSERERESWMTwSERERkWUMj0RERERkGcMjEREREVnG8EhEREREljE8EhEREZFlDI9EREREZBnDIxERERFZxvBIRERERJYxPBIRERGRZQyPRERERGQZwyMRERERWcbwSERERESWMTwSERERkWUMj0RERERkGcMjEREREVnG8EhEREREljE8EhEREZFlDI9EREREZBnDIxERERFZxvBINIn6aw7gv7/zFdz20c/jZnndeg8efrEYXYPGBFOtvwstzV3oN77S1Opvb0VXj/HFif7OVrR0Dhjf3n9WyuzKpG7TJJ6zdS/eh5u//gbqjO+ODj6i/k2OM56IrGF4JJokXXufwl13/Ra7Q9fhK//1EJ548kHce1s2Kv/6Y3ztN0fQZUw3pQ49gztvfwZ5xleaSvV4/d5v4P5/1hvfx5b3x2/gzj8eN76936yV2ZVJ3aZpPGeTUmYZn4joXDA8Ek2GwWL87bHtwOVfxa9+cBNWzYlBeEQCFnzoVvzylzchYssf8Me9Rk2NXU1Lf2M5Dua32oYbpGaopXmcmh09v22aLvvqmh41vKNPfehD5xjzu1yuo8EBdJnrcaypst8GqYUaaxonzOnHq22yvg/UMpzU6o63jLFq3xxr00amGdkP9uWVYW3oHFJ7u7PNaTlkGZ36kNjKO+p46WXYymi9JtBuHlmWLtvZ+3HsbbdW5hH2x99uBeNuk7NzU8j52S7lUcsty8fBMvVz6lzPWftjM121+0QEj6qqqmHjMxFN1N4/4Ob/7MK/PfNVrA8yho1oxcFnX8TBmGtwx7oEY9o+rP9QMTb/UwXH9Jvxm19eg9jB09j80M/x+72dCIzyRVdjF8Iv+wJ+9rXVCPeyLanqzUdw/+NH0OIfhnC13JaeMKz/7oP4txWBusnu3/9cYZtQrPsqnv1qrrrAul6uo66jz+IHD7yBKgQizr8Pte3A3Dvuw4M3qvILvQ3Ap+6oxwt/Pg1vzy4VFrxHT+NopBytqhxhQIsKGOGX4XuPfg5LzH1mN42vjzf6+gcQvuJz+NF3L0OSUdaRsg15w1cFkT7PBNx47/dx28JA2wQul1GPV77+Xey4/CH89GMxehYhTZo/gbHPzGkW34z0bc9iR0+gClwq7ESZ5T2CRz/6CHbYZlVm4TO/vw83xBtfNdsyni4xviprf/An3L1CfejMx1++/yu8XDagyqiik9p3STd+Df95R7ba407YzRMY5I2uvlR8ZsMi7HioGp966QtYItOMe6ytlNlmZB/7hiHOsxO1XUHGedbpdJvGOzeFPj+3JeFa/314PV+FQXV+/iblhYmfs5Xb8dCPnsKBRm+1P1SI9L8Mn7m8FE8fWmP792RMZs9WBufjicga1jwSTYKqsjIVArOw4KzgKMKw5ObP2YLjiAMoCboLTz3/JzyrL2QDOPi4ulg2r8WDzzyOp/70azz79F1YkPcH/PDv5bZZajbjT38uw7y7HsIzz/wCTzzzJ/zy06HY/KsXUahGx37sPjz7g9Xq02p87yW1XB2CLCzXUf8R/O1X2+H7ke/jqb/9Gr9+Ws333eWo/O9nsLnZmEbbjT1tt+CJ53+Np557HL/8lwQU/vkF7HFSi1b3+jP4n1MZ+LffSzl+gaeefRCfCt2OR/5abExhlLUoGxue/hP+opapy1r0FO7/b2Oamjdw/31vwPeWB/HM84/jL+r1y1u88fJ9j2Fzo0wwzjJUsHGsDHOlZGsRFvxMLecZ235b27Md//0P2W+5uPulh/CZdHXYP/sQnn1prBAWgxt++Sd8b536KKFIHRMdHCVU/ui/8LLPjfjlc1LGP+GZR26E78b/wv0vO2tOHsCex9Q8nlfhQbVdT6lj+ezv16PwDy/gTI5zdaytlFmU4+XfvoGB67+vzzM5/r+8LRq7/2+7+jHhZJtcnJsjSvLR/AF17Izzc+LnbDn+9uBTOJH5OfxGHeOn1Pqe+mYodrxsF0SJaMowPBJNgrqq08Ynq1bjpk9nINCsRenZh81v+uDGf70Jc80AGrIU/+/mDNRu3YdS+R6/HveqC/OG9THw0RMASatXIKnzJAqc9QCwslxHPrm4Q12wf3rbmfIFrliGpchHoV2N08g26M/eSLp8DdIH61HXogecJfa6b6ogcBfWx3vbBnglYNWlCegqKLJ1YNBlbcXaL38Bq0L0FLqsX3r0F/jV5zL019K3NqMk5WZs+ESCsQ/Uej/xbTzxxNewPkp9dbKMu7+8Gi1vbncabJ1Juu4mrJXlCrWcy1YCtfVONtCqou14s2gWPvPN65BkHEif1Ouw4bZZKHl1+9jHRG3Xjp3A2n+5GXPN7Ypajc9/wrZftIkc6zH1o6tdHfOAM3WgSR9TPyR+eg2SjO9nsXpupl6FT9lNMyYr21G0DztrZuHjn7sMscbCArNvwqcut30moqnF8Eg0CWKTnDTVjsPXDI6ipVUFqAa89fPv4Ct3nnn98K9lKpk2wqzw628ux+a/PoWHvyPjv4Lb/v0FVMmIIT36bBaXe5ae0zj44rN49L571PTfwOdu/q1u7uxzuK9s1Da4NIAWFZz+9thvcY+U4zNfxNf/okK3uUxd1llId+jT4BMShkAjIDQ3NgBpCQ5NjoEIjzICqZNlYFYK0lGPZjdzn6+XsdzJ1NyIWhXDkh1q/WKTVTRzdkycbFd49Jlm9wkf67Nk4PrP56L57/fg1lvvwQMPv4DXj552eU+hpXPT03v84CisbIeTfcgOMUTTg+GRaBLExqnwWFKEwjFrtgZQdegADpa46m8djaU33YLbPmv3+rcvYsO3rlHBR6l5A/f86/34W34gcm68FRsefBBPPHKzbdy4XCzXUc8R/P5L9+Dhra1Iv+ImfPEHP8Jjz9yFtcboiap7+UHc+Z0XUeifjRv+7S788NFf4pef5cV+crl5rJ2IXf9VPPHML/CzDesxF6ew8YF7cPs9m1Woc2LC56Yzk7MdjiJW3IINn81FhPGdiCaG4ZFoEvisuAxrgw7g7/83xn2ElW/g0ft+i83VvsaAMYTHINarC8EpS7HqUrvXsiwsXZ2CcDVJ3a5dKEm+CT/6j5tx7aW5SIsNQ2BbA2ptSxibheWe5egebG5eja/84gu4Yd1SLEhV6+lscR4cLKnHni0VSPr0t3DvHeuxamkKYiMC0Vynb1S0iUlAklcFCotH96xtOXEAeZW2YbpmKb9odBPs4Gnk7SxHi9zQ6GQZ/cVFKPFKQrJdRV3foP00A+jsNj5ONV0LWoSCUbcAAKUni4D0lLGbho3t2nNwdM/8wuNqHtNEjrUT/Z1d6PcJQ9rS9fjUhm/i1/9xDSLyt2FPjTGBgwmdm85Y2Y7oKMTJPrTbfDmGJUXj3/Pok5yNVYvNWx6IaKIYHokmg38u/vVrq9H7f/fj649tR2md7REjVQdewEM/fAElc27Gp1aP0wTqvxQ3XOuD13+hQqYRlPqb8/G3e76CW39xQHf0iIhVyacyH0dr7Mb/ddvo50dGyEW1CiVlA+jvV9NZWO5ZjAvzsaPGkntOY/NTr47u+OC2CMQmAlV5+ajTKx1Ay9EX8Le37ErvlYtrrw3Dnj8+fqasldvxp5/+Fo9vrdbfYy+/CgvqN+J3f8m3hcX+VuT97+N44BevIE+e+OJkGY/+8QDCr12PJbqZPQbzFoah6sVn8EqRCkn9Xaja/CSeL3Daz9mJCETEAbWnKtCl9rWzZt2IqGiVDCtQJdNImeNX45qFDXjhty8gr1nKaNsXv3u+AQs+tHrsXsBquz5+2ywU/vF+PPTX3Th44Ah2/PUR/G6r3RG0dKwtlLnnAB79f1/BPS+W28YPdqFwz3HUeqlQZyRQx22ydG46M5FzNv0qfEz24e9fQGG7DBhA3ebH8afd8tm50md/jK98ZyNKXTTBE9H4+KgeoknUlf8GfvfIC9hjXEThFYj0D96O7/3r0jOPGDEec/M98/EqpsFWFXp+jl//8zQkB4nwFTfjm1+7xtZxQI3f8av78eh2o/bJJwM3fWkODj56HGtHHrnShYOP3YOfvGn/CCAXyz2LCgt//RUeeLbYNr1XGNZ+7Xrg4WcA81EzY21DzRv4zr/tsiuLg8bdePTbf8AOo7LRN/s63JF1BL+3f7TKWWWVR9jchf/8bO5I552uE2/g0Z8/iwNmpWVULu649y5cm2qE87GW8aEv4kf2x6CzGH976Fd4QQdkb8St+yK+mPIyHii/afSjesZ9nI9S+Qbu+fqzKFSJZuQxPI461Tbe/YjuDS69nPXy1Ppf+dVv8fRe41iqfbz0trtw98fMDkhjUQFp5wv4/bP7Ud8NhC27Bd9ctB93PmR3HKwcawtlHnlUjy1xAkHZuOmHX8ansozSOW7Tjb4uz03nj8mZ4Dlr9+gi4Zt9M76ybBce3unsUTwD2PPzL+Lh3Uux4Zm7sMrfGExEbmN4JJoK8vDjfl+Eh0ygw4U8+LitEwgIQ+BYFzhZtgoPQaGB8HHWYUVqhKRzgv14V8t1JA987uiHb7CafhLb+fRDphE0/r6xsG6Xy7FS/rH20wT09wzAx3/8Yz3mNFaOpT2pMbOfzukPEdfH2nWZ5QHcnejzdr6Pz1qGu9tjb4LnrDzcvXPIxflERJOK4ZGIaMbrwsFH78Hvej+GB79mPJ6m/zRe+N49+JvPrXjiJ+vduqeRiOhcMDwSEZ0PpNn/B09ih3lLhOKbuh5fufdWrDKfRUlENA0YHomIziO6uV7yo28QwoPYVEtE04/hkYiIiIgs46N6iIiIiMgyhkciIiIisozhkYiIiIgsY3gkIiIiIssYHomIiIjIMoZHIiIiIrKM4ZGIiIiILGN4JCIiIiLLGB6JiIiIyLIJ/4WZxoYmtLW2o7e3F8PD/CM1REREROcTDw8P+Pn5ITQsBFHRkcZQ19wOj319/aiqqIavny/CI8IQEOAPT09WYBIRERGdT4aGhtDd3YOW5lb09fYhaVYifH19jLHOuR0eS4rLEBoeiqioCGMIEREREZ3PGhub0dbShvSMVGOIc25VGUpTtdQ4MjgSERERXTgk20nGk6znilvhUe5xlKZqIiIiIrqwSMaTrOeKW+FROsfIPY5EREREdGGRjCdZzxW3wqP0qmbnGCIiIqILj2Q8K0/QYRIkIiIiIssYHomIiIjIMoZHIiIiIrKM4ZGIiIiILGN4JCIiIiLLGB6JiIiIyDKGRyIiIiKyjOGRiIiIiCxjeCQiIiIiyxgeiYiIiMgyhkciIiIisozhkYiIiIgsY3gkIiIiIssu+PA40NOBngHjCxERERGdE4+qqqph47NL+ccKkJ0zz/jmhsbd+O3PNuO08dVewofvwl1XhBnfJlnnYTz9wEYUrLwZD358jhpQhOe+8yzwue/jk9m2SUYbwOGnf4bC5c7GExEREV24rGS9aax5DMOij9yET986+vWh7CBj/BQIysH1d96EO6+W4DieVux+aSvKO73h7xuHhNgBNB/ZjK0FrLIkIiIisjeN4dEfCfOykJM7+jU71ts2eqAX7e29kLg20FqLguIGDAzaRsm45soinKq1jT+LnrdDv0Y3UXsjJD4ZsQHGV2cG/ZGa3IuXfv4oXjrZgp1PPIInDnoiIdoYT0RERESa14YNG+4zPrvUUN+ImNgJJKruSuzdWY/4S5ciJdAY5qhgI/7j0SL1YRv+9n+HcXzvLry1rx9pc2vx3M+exdaCQhzcvB3bin0wf0kygozYW/fes/jN7zZi83vHcGTXdrz11kG0Ji5GdoyE0la8+/vf4J/9uViZ5q++N+H4W8eAxZchJ0bPbuOpQmZYAIYbS5BX3o4+n3isvHIdlqcHskcRERERXTSsZL1pzEaD6DFqB8+8es/ULmrHUB78L7jn3rtxzwN34uqg3fif3xVg/t3fxj3f2YD7NqxHTPlmvFNoTN64H6++VoOUm+7Cfffdje/c933c/YEg7P/7VpQbk1gyUIZXH92I0zm34NNL43D1bVcj+OCf8fiWBmMCIiIiIhLTGB4bsPV3j+KnD9q//oLdLcZoLQeXrgm2ffSORkKcynUZy7E61jYIsdlYFA/U1bXavkctwx0qNH56eRiMxm/E5mQjtrsS5c3GACu8U3H9t+/Ex3LDgKFaNPcmYe1n78Zdl7PdmoiIiMjeNIbHaFz5pbvxnXvsX7dhdbgx2hlfv5FgOJaB9lrs37QR//vb3+Lhnz6M+x7eijoZMaRHW+dle5t34934UIbtszmMiIiIiGymMTx6wT8kGCGjXioYnktAa9yNx3/yJ7xVGoD0y67Bv9z5RXz3G+uRYIyeCO+gYPiPl1aJiIiILmLndX+Q5rxjOB1zJW7/wnqszp2DhAgV/Dpa4U6LNRERERFZ9z53mOlAT58xegJCIsKB+hKcarQ9n2egvQxvbTqMHv2NiIiIiCbb+9xh5lH8aZfR+WUCvHOuwScXNuLVn/0M93znx7jvp1uB5cvPqdmaiIiIiJybnj9PONX6etHeCwQEnuM9lEREREQXsRn25wmnkK/fuXe+ISIiIiKXLozwSERERETTguGRiIiIiCxjeCQiIiIiyxgeiYiIiMgyhkciIiIisozhkYiIiIgsY3gkIiIiIssYHomIiIjIMoZHIiIiIrKM4ZGIiIiILGN4JCIiIiLLGB6JiIiIyDKGRyIiIiKyjOGRiIiIiCxzKzx6eHhgaGjI+EZEREREFwrJeJL1XHErPPr5+aG7u8f4RkREREQXCsl4kvVccSs8hoaFoKW51fhGRERERBcKyXiS9VxxKzxGRUeir7cPjY3NxhAiIiIiOt9JtpOMJ1nPFY+qqqph47MlfX39qKqohq+fL8IjwhAQ4A9PT/a7ISIiIjqfyD2O0lQtNY4SHJNmJcLX18cY65zb4dHU2NCEttZ29Pb2Ynh4QosgIiIioveJdI6RexylqdpKjaNpwuGRiIiIiC4+bG8mIiIiIssYHomIiIjIMoZHIiIiIrKM4ZGIiIiILGN4JCIiIiLLGB6JiIiIyDKGRyIiIiKyjA8JJyIiIroITdtDwvnnCYmIiIjOf9P25wlLissQGh6KqKgIYwgRERERnc8aG5vR1tKG9IxUY4hzblUZSlO11DgyOBIRERFdOCTbScaTrOeKW+FR7nGUpmoiIiIiurBIxpOs54pb4VE6x8g9jkRERER0YZGMJ1nPFbfCo/SqZucYIiIioguPZDwrT9BhEiQiIiIiyxgeiYiIiMgyhkciIiIisozhkYiIiIgsY3gkIiIiIssYHomIiIjIMoZHIiIiIrKM4ZGIiIiILGN4JCIiIiLLGB6JiIiIyDKGRyIiIiKyjOGRiIiIaAZrbGjC88+9anx7/zE8EhEREc1g/9y4GX9/5kX89x+eMYbY9PX24fChY9j4yib9Ono4XwfNqeZRVVU1bHx2Kf9YAbJz5hnfiIiIiGiqDQ0N4Te//CN2bN+Daz68Dp+/8zZ0tHfim1+9F01NLcZUZyTPSsT/u+MWLF6ywBhinZWs57Vhw4b7jM8uNdQ3IiY22vjmhsbd+O39/4OX39qOzfLa8h727juJ014xyEgMhfdFUv/Z/M6f8J8v92HJqmQEGMNGq8VbP/07qrOXIiXQGEREREQXNQ8PDyxftRilJeXY/s5utLd3YNWaZVi6fBHiEmJx9QevwOVXrsGczDR4qP8VFhTr6Xp7+7FwUbae3yorWW8aY1sYFn3kJnz6VvX61HW4/vJ4nN74Zzzyf0XoMaa4aPUV4a2XDqN5wB/+AdGICe9F+Tubsb/RGE9EREQXNS8vLwQF22qWXt+4WTdhJybF47obPqCC5FIsW7EI1934QXz/R1/Hbx5/CGnps/Dyi//Er/7rcV1zOZmmMTz6I2FeFnJyjdeaa3D37cvQf+Ad7Gs2JhGDA+hRiVpSdU+fMczBQI9tfHvngDFktDHHG8vtsZ9FD+vFwKDxXQz0qnkdhvXJMFmmGm4MGiHj9HrUsmrLUFDbaxsuRrbFYXmOPGMwK6gATzz4Z+xsKsNLP/sNXmqOQqK/MZ6IiIguahIYt23ZhUWLc7BgYZb+/qcn/qLHDQwM4Okn/66HDQ4OITYuBg/85HvIXTwfu3buxQvPTm5nm+lptu6uxN6d9Yi/1KE5drgBR3fmYXjOZciJAXqKN+OxX/4d/9x5CMf3voc339iJooB5WGbONNiA/U//Eb9/bhf25x3Fnk1bsPmkD+YvSUaQxODxxnudxus/eQK7g5dgSZKvXtzAkRfxwGOvoD52DRbG23J08/Y/4+cvdiLnsjSEqO917z2L3/x+Iza/ux97tu7E5n2nETYvB4lBenI071DT/7MKXQdfxV//eRhHemdh/YJINeNhPP2bp/Dim/uxf+9OvLWnDWGRHShqisUljs3Wnv4ID/dCV0kxiho70BeahXXrVyM71tuYgIiIiC5WnZ1d+Mn9v0BMTBTuuX8D1l21FuVlVdi2dRfa2tqxfMVifZ/jE4/9Gbvf3Ycr1l8CX18frF6zHG+98Q6OHDmO9VdfhoAA17VSM6zZegwtrWhGHBLi1eeBIrz17EF4rf2s3jEb7v027vl/81D3yhvY326bfODYO3ixIAkfk3HfuRv33Hszctp2YmehrT5w/PFJmL/YD6cKykZqD4sLChASEoxjBaXGkA6cKqyFf3YmEtS3gYKNePL5Gsy+dQMefPDbuO/HG/Dp2TV48YmNKLCvFa0qQ/vyL+K+n34fD94yRw2oxVtPbURZ8nXY8J+qLPd9H/d8OgiHd9TapnfUuh///bsjCL7u47g6KQef/tw8NLz4Gzx37Kx6TiIiIrrIbN+6G719/fjs5z+FoKBAeHt7Y8lSW2eYN17bomsgo6Ijce+D39Lh741/btHjfP18ceNN12JgYBBvGsMmwzSGx8GR5mh5NVfux3PP7kfPnOVYFKFGe8/B9d/bgLuuTYK/l20O/6x5mIcylFfbvnf39Kg94Y2R3Ow/B5/89gZ8LNtWQ+dq/Ox5KtjlF6FYNyFX4WR+NFZdm4uI/GKUy6C+MhQW+WFxbpL6MoBj7x1G+9IP45M5fjIW8PJDzic+jEVdh3HguF2wi1+Oq5aHYaSesDIfhxvjcOWHFyHCGOifdiWuXmT7fJawZbjzezdjbZpaz2ADmj2zcP3dG9R6WfNIRER0sXvz9S2IiY3SHWRMO7bt0e8rVi0ZCZCxsdF44KHvoaX5TA/saz98FcJCg7Fzu236yTCN4bEBW3/3KH76oO318GNbUTf7Otx9+yLdPKz1NaDgnc147o9P4OGfPooHf/gCDqvBA8Z9niGLr8SVYQX43wd+hgd/+zxef+cETrefCXGuxiNjHnJQhJMV6nPlSRQgFbOXJCOlrxLl0jmluAjHvOYgc5ZM3In2ZiAhPka+nOEVo2tKm1o7jQGKlyd8jI9au9SoRiMmyvhuiI2PMz6NQQfmcKz+19uwOtT8TkRERBe7np5eFTU8R/WalppIH28v3P31L2DZykWjAuTNn/6oMRXg4+sDP//J7UQxjeExDtd++/t4UJp25fXjDbjrlkUYua2vrwgv/uwJ/O+BdiQsuxwf+9wd+OZ9N2FUZZ1vEq7++jdwzzduwQ0LItB8ZCN++5PH8GqBERBdjp+D+dm9KDhRi+biYjRnZyDFKw1zs2tRWNyB8pNFwKIczHvfgps3/EP8oM4FIiIiIm3FysWoqalHWanUftmsvWwl+gcG8T9PPotvfOvLWLJ0oQ6Q0gtbmrVN8uDwuroGrFyz3Bhy7t7fex7tFR/D/vYcfPLuj2DtkizMjguGf3cn7Dti697LPYB/XCoWXbEen/7Kv+Njczqw+5Bxz6Kr8SqczZ6XiuaKEhwrr0VOdpoelrNwHk4VH1GvXuTMk2EiDDFxwOnK06N7WPedRkUNVLIPMwaMISwMEahERaXxXRtAdaWTex6JiIiInLj2uqv0+2OP/En3rBYybM7cdGx6Yytu/eQXcfDAUT3cfIyP6fXX3oafrw8+dN16Y8i5mznh0QhcJaeMR930NWD/aztt9yIaTm9+HA/+10YcM5qiBxpPoFBNEBFpa/h2NV6EZC/A7KLNeD1/HuZn2ZK5d8YczC4/iP01atj8M2l93qplCDnyJp7b12B71I6U6bk3cSxwGVbNtU0zpsTluHJOK7a+uBXlunV7AM37/oFXj+mxRERERJYlJMbhw9dfjZKSCvzy57/H4OCgfu7jvQ98C1esuwTzF8zVr8989pNYtnzRqAD5uX/9ND7/b5/RHWomy/v7qB57IQlIRiE2/t8beEv+Cs22AvhdeSni84qBxbZH+YSkzUZY2Q489/wW/Zdqtu4swUDuDbjzunT4qRjsarzmF4DO/L0oilmNG1bGQ3eFkWEHtiMvzm6YCJ+DRYkt2Pl/r2LjJvnLOPtR5LEQt/zbNcg0nrXTU3YQu2odH7/ji8ScFPS99yZe3PiOKstO7O1ehI+t7EJe3RiP6iEiIiIax4LcbBQVluDA/iMoyD+JhYtz9BNjVq5eiivXr9WvedlzcMnaFSpkluse2tJBee3lq5GWnmIsxTUrWW/m/W1reUh3dz98AoLh76yzsTyYu3ecaVyNd5s87LsH/T7+CHFzgfLA8u5BNV/QpBSEiIiILlJS4/jUn/5X39sYGBign/e4eNlCeHt76cfxnK6qxeHDedj/nnQ3tvnQdVfh9i/8i/HNNStZb+aFRyIiIiJyas+uA/ovykhHGEe+Pt644qrL8MEPXYk3N27GpjffwbXXrccdX7jVmGJ8DI9EREREF6Dh4WHU1zfidHUtKsurdA/rjDnpSJs9a6S3tUzzx989rQPkzZ/6CD7xqRv18PEwPBIRERFdxCRAPv/3V7Du6rWWOs1YyXozp7c1EREREU0qebC41DhOZm9rhkciIiIisozhkYiIiIgsY3gkIiIiIssYHomIiIjIMoZHIiIiIrKM4ZGIiIiILGN4JCIiIiLLGB6JiIiIyDKGRyIiIiKyjOGRiIiIiCxjeCQiIiIiyxgeiYiIiMgyt8Kj/HHtoaEh4xsRERERXSgk40nWc8Wt8Ojn54fu7h7jGxERERFdKCTjSdZzxa3wGBoWgpbmVuMbEREREV0oJONJ1nPFrfAYFR2Jvt4+NDY2G0OIiIiI6Hwn2U4ynmQ9VzyqqqqGjc+W9PX1o6qiGr5+vgiPCENAgD88PdnvhoiIiOh8Ivc4SlO11DhKcEyalQhfXx9jrHNuh0dTY0MT2lrb0dvbi+HhCS2CiIiIiN4n0jlG7nGUpmorNY6mCYdHIiIiIrr4sL2ZiIiIiCxjeCQiIiIiyxgeiYiIiMgyhkciIiIisozhkYiIiIgsY3gkIiIiIssYHomIiIjIMoZHIiIiIrJswg8Jr6yoRkNDE3p7etHf328MHZuPjw/8/P0QHR2J5FmJxlAiIiIiOt9MKDwePnQM7W3txjf3hISGYNHiHOMbEREREZ1P3A6PUuNYWlKO4JBgpKYm63cfH29j7Nj6+wfQ0d6BsrJK/Z6WnsIayAvMwMAAPDw84eVl7U4I+WPsg4NDLs8dIiIimlncvudRmqqFBMeIyHBLF3+ZRqaVeYS5DCt6enqxd/dBbHz5Tbzy0hvYuvldNLox/1hqa+ux+a3tusl9JpJg1dfbp9/PB50dXdj69g7kHc03hrh2Iv8kNm/aNuEabCIiInp/uB0ezcAlNY7uMuexGtqkNuvg/iPqvR+Xr7sEV33wckRHR+DggaNob79wQ0d7Wwd2bNuj388HgUEBWLZiMTLnzjaGuJaRkYblKxcjKDjIGEJERETnA7fDo9k5ZiLNjeY8rjrYmKRGq7u7B9k58xCigmdgYADmZs1Ry/FBfZ3r2se+vn4dVCWEOiPjxpvGHC81gcPDZ1r45bMMk6ZXmaapsXnUMpzNZ2+s8snyevvUPOp/8i7T2BtvuTKtjJdlNDe1jJpXL9eYb7waTcftklpeczkyrquzWy9bxps8PDx0CPT19dHfZZxZPrO89tsovNUxlGMq8wrHsstxN/X29OlyOC5DvjvuH/t1i4ksl4iIiJxz+57HHdt26/e1l6/W7+5yZ/729g7s3XMQS5Yu1M3eQoLBuzv3ITMzHUmzEvQwRxIGjhw6htPVtfD08sLQ4CASEuOQuzgH3t7eutn62NETiIuPQUVZFYZU0BhWgUpC6uyM1NHLOF0HPxWK+voHEBQUiBWrlugQK4Fo5473EBkZgZrTtWoOD6y5dLkKUYHjzjdq2WOUr1GF0Pd2HdDTieiYSD2vlLuspBz5x0/C09MTA2qewMBALFuRq0OYLFP2la+vrwpJzSok9WLlmqWIi4sZmc9L1qW2U+5LXLFqKcLCQ421nGFul+wbKd/gwKAOYouWLEC52ldtrW0qiA2q8niNLMNcd2xsNDLUcbGyf81pLl27El5qWTJ/QEAAWtXypQzyAyNnwTx1DnSiuqpGzyPlWKzOhfiEWP29+GQJ6uoaRvaPmIzlEhERkXNeGzZsuM/4bEl5WaV+TzHuX3SXO/NLTaXUdEloCQkJUsFnWIWgAl1bNTcrQ4coRxKOjucVoLmlDWsvW435OXORnJyI4lNl6Onu0QGns7ML5aUVKphFY+XqJbbmVrVMKVusCltSg1amxtfXNWL1JcuRPX8u0menoFaFxK4utYy4aB2qKsqrJHlg9aUr1DSZ8Pf3czmfq/Klz05FfHwsGuqbdBido8om21lbU4f8/JNYsixXhcz5ejoJ11KGxKR4ve0ShmTbVq5eioWL5iM4OEh/P3o4H1mqfDKvhLeurm60qPXHxEaN1PyZzO3y9PDU65d9I+HqxPFCpKQk6abmNLVNct9qR0enDlyyTbJuCcmRURGW9q9MU6+CnyxTtk/ml+1fuWYZ5mXPUcsK0vspNDRE7d/lyJiTpgNxXV29Dtoyj9QkynKSkhNGzoXJWC4RERE5N6OvlHIhT02fpQPazu3v6U4uEsxmpSSP1DQ5kmZJqX2ar8KS3Isn5P0SFfCysufq7yIgMACpacl6HRKgpIYOw8BAv60JU8LZFesu0bV6QtYnYUh6i0tNmyk9Iw0BAf7GN9fzWS2fPQlnlRWnVchM0IFPSM3f7IwU9Pb2jbo3UoKouW4h8w4ND6nt9NLfZXslWEoAHS8opah9I2WXfSO1i94qyMcZNXMyPCYmCt0qhNrvC3uu9u9YJARLABfBwYF6ndIrX5Yhr7iEGL3/JOC6Y6qWS0REdDGa0eGxrbUdu3fuQ2x8LD50/dW4/iMfxJLlC3E874Su4RuLhBOpNfP3PxPohJ+f71mPkRld5zaa1LY1NbXgyKHjuof3pte36h7CMtyeh+fopbiaz53ymSQA9vX1qW2uxOZN20dee3Yd0AGuz+4eUk+H8khtoASlQweO4O1N25B39ISusXPcDlckZHl72QKoVePtXytkP8l6J9tULZeIiOhiMKOvoNXVNQgOCUTGnFRd0yY1WLGxMZiVmqTvx3NW6zUZSk6VY68KZ54q0Mk9cpdfuUY3Q7sy0fmskHsIs3PmjrxyFmRh6fJFCAs7+95Fk4SkrOxMfOCaK5GVlanv+9v17j59X6CEUiIiIiJ3nLfVL85qzuTPIEptYEdHlzHERt8f5zDMGQmlco/h7DlpWLAwSzcVy3J7es701B2LlfkmUj4JgNLsKs3Fcl+e+ZIwKeswm2SdkYe0+/j66A5Gy1YswsLcbN3RpN+hp/L5afR5MNA3dT8oiIiIaIaHR+nc0trSgaKiUv3IFXncSnVVre7BGxcfq8OUIwlS0jGlsKBIN3tLyJT3QwfzUFFZbUw1PjOsNTe36kAoy5AOFbZe1c5Zmc9K+eSePGnzlYAp2yzLTZ6VpO97lL/SIzWGsvzCwlPYtmWX7iTiTHNzC7a8tV3vN1mXzFdXW29rJvd2rxl6pgmPCEObOj/KSyv1drW2tKGkpEyFczZJExERTRW3r7LyjEUhtVnuMucxl+GK9NxdumIhqitP443XNuO1VzbpR9zI42DSpCONE/Oy5iBGBc/t7+zCq/94U79LD+Y5c9KNKcYnYU16OUuv5H+++rZexqmiMsQn2no1O2N1Plflk/sU5U84yn2K72zZqf/KjtQwyqN8Co6fxMaXN+nl11TXYtGSHD29MxER4Wp9GTh6+Jhel8zX2dE98tii85k8vklqeU+cKNLbdfjgMbXfUuHN8EhERDRl3H7Oo9SQSc9hud/OfPaiVdI0eyzvhP5LM4uXLDCGWiM1S/KoHvNB1FZIrd1Af79+ILXVv7nsyHwItTvrFVbmc1U+855ECaX2JlImXVspnXXUes730OhIalSH1L4832tSiYiIzgduJ6ro6Ej9Ls2nEgat1EDKNDKtzCPMZbhDAo+7AU4CmdxjONHgKGSd7q5XWJnPVfkkNDoGRzGRMslyfP18L7jgKDw8PBgciYiIponbNY/i8KFjaG+b2N+WDgkNwaLFOcY3IiIiIjqfTCg8isqKav1XRsw/+TYeucdRatikxlGeOUhERERE56cJh0ciIiIiuvhM/GZAIiIiIrroMDwSERERkWUMj0RERERkGcMjEREREVnG8EhEREREljE8EhEREZFlDI9EREREZBnDIxERERFZxvBIRERERJYxPBIRERGRZQyPRERERGQZwyMRERERWcbwSERERESWMTwSERERkWUMj0RERERkGcMjEREREVnG8EhERERElnlUVVUNG5/dUllRjYaGJvT29KK/v98YOjYfHx/4+fshOjoSybMSjaFEREREdL6ZUHg8fOgY2tvajW/uCQkNwaLFOcY3IiIiIjqfuB0epcaxtKQcwSHBSE1N1u8+Pt7G2LH19w+go70DZWWV+j0tPYU1kERERETnIbfveZSmaiHBMSIy3GVwFDKNTCvzCHMZ7qira8DGVzYh7+gJY8gZQ0ND6Ovt0+/OSPP65re2o7a23hgy9ayUi85PAwMD2LVzL4pPlhhDXBsctJ0Pw8Nnfq+NNYyIiGgmczs8SggTUuPoLnMecxnuqK6qQVBQEJobm/XF1l57Wwd2bNuj32eSmVouen80NDRix/Y9o87fsYYRERHNZG6HR7NzjJUaR0fmPK462Djq7OxCc1MLMjPTMTQ8jObmFmOMreamt68Pw+p/8t7X596ypQZJwux4tT+yTD2Nk2XrMhjLMGsZ3S2XrFvml+VImeyZ42SZI+tyoyzOyLSO2+1YWyplkXXpMhj7wbF89ssx96fjNKbxttNcjqy7q6sbLc2txhgbZ+s3met23CaTuW0yjaxrLK7W4Yqz/S/L6x/Zj336+1jD7Dkri7kPZV0yrkn9oHKchoiIaKq4fc/jjm279fvay1frd3dNZP6qitMoKirBmkuW4/jxQgyri/KiJQvg6empm6Hf23XAmBKIjonEilVL4O09OtzKRXjnjveQszALcXExelhZSTnyj5/UyxkYHERgYCCWrchFiFFD2qPmObDvsA6ufn6+6FUX7OiYaD2NuXxzGV5eXjoseHl5qvUvRU9vr6VyCfv1eKiyyPZlzEnD3Kw5umxm2ROT4lFZXqWCwpAO4LFqO+zLUldXj0P783S4kJe3txcWL12o1h2lxzuSfXfs6Alcunal7g0vWlvasH/vYbXcRQgLD9XNsjU1dWrfBOD06To9jaeHB7LnZyI1PUV/N5cTFx+D0pIKeKkyD6r9ab8NwtzOFrUOb7W/ZBsy52VgjvpRYB7Lo4ePIzwsTH2uQ2RUhN5n4sihYzhdXQtP2c9q2QmJcchdnKO3XYKTHq/K5+frg77+AQQFBep5pdzCft/IuqR8sm/iE2L1ePtl+PrIMvqRlJyABep8GeuYyfR79xxEbGw0MlT5xXj7X/bj8WOFejoxKyVJnWdBZw1bvHSBy7KY50NkZARqTteqOT2w5tLl+ngRERFNNa8NGzbcZ3y2pLysUr+nGPcvusvd+aV2peBEMcLCQpCgwpPKLSgtrVAX/Tj4qqAQHByE+PhYNNQ36QvonLmzR8KKvcGBQVSo4BUbF63nqVWBKD//JJYsy1UhZD7SZ6eivb1DTyMhzUOt6IQaLzVDa1S4mqdCkHTykc5CEgrCw8N0jejRw/nIUkFKljM7I9VWY6bCUfrsFCSoMroqlwSFg/uP6vVddsUaZGXPQYwKJCeMUCv3ipplH1AhYrUK0LI+CS3FKlBLU35oaDDaWttxYP8RPW7p8kU60AwPAYUFxYhVoU72lSMpf31dA1JUaDEDkgQTCWmyD/xVoJRAW1l5Wi0jFitWLsFcFfYkSBfkFyEyOgIBAf56OeXqmEhQu0TtKwmM4RFhKFTHLSAgQJfP3E6Zfs2lK3RolO3MzysYmUaWU6HODznOEsBT02znyHE1TbPap2svW435OXORnJyI4lNl6Onu0fuhTK27vq5R75vs+XP1vq9VoaqrS41Xx9sWxo6r4xGLVWuW6X0j+1bCmQRecx3d6thdetkqXX5ZR1FRqdrng/oRU47kh4LtVopAHXJd7f84tf9kn7S0tGLd+kv1uSTzOQ6T5boqi3k+qISK1WpfSpCXY0VERDQd3G62nm5dXZ1oa2vTF18RERGugo4P6s+h44tcoCsrTquLcoIKMLZaOQmEszNSdO2i3KMoYW5hbrYOOhJ4hISjCH2xb9PfZTlDKiF4enrp7xJIFi6ar8PoWEFxLLIuCa0SesxmfVmHBNHqqtO6p7opPSNtpIYwRIWtUBWoe7q79ffq6hpEqEArNVRCyp+SmqRr6lqaRjf/uku2Py1tlt5HstzEpASEqXVVVdYYU6hfIV7eqsxpIyFUQp3UDlap4Ck/AGQ7JRxmzs0YmUa2U6aR2jPZlyJA7WMJjbIu0a0CotRIzlcBKTDIVoso75eo45KVPVd/l+B/xbpLRmqMZflSQyw9+yU4Dg1Jc/qg3hem2XPSsHK1rSZY1tHY2KwDrbl/ZR3pqhz1dfWjjoEzk7X/3SmLnA/muUlERDRdZnx4bKxv0hd4/wBfXSs2PAyEh4eoQNGoA8FESFCRe8zKSiuxedP2kdeeXQd0jY80E5rTSXA5dOAotry9A2+8thkV5dUYVmFESK2T1BYdOnAEb2/apnuCS02dNFlaJeuSoOlYcxSswqHc8yZNtCYPTw/j09l6untRX9+IrW/vHNke6YjR1dWFnp4eY6qJkYBihjkhn3UzvjoeZujz9fM5axtkvr4+2zSynbJvd727d9Q+l3Apx8JcjrDfygEVljw9ZP+MDkmyfrlFQMj+blL7XWoXt25+F5te36prjc3jILWuaemzcKqoVI87fDBP11Sa65R1yLbIcbYv28nCkrOOgTOTtf/dKct45wMREdFUmdHhUWqNqqpqdK3V1rffxZvqwv/m61t0gGtuakZ7+8QeVG6SJsvsnLkjr5wFWbrJMSwsVAcLuY/v8IE8BKqQmLtoPtZdfZm+L80koS8rOxMfuOZKZGVl6ov+rnf36fnsw9B0kaZ9++2R2swlSxfqZtOpIOHNVQ2rTONhZBz5S0NSo2ZfRrlvUZrCrdbUjqXkVDn2quDvqdaVs2AeLr9yjd52e6lps3D1NVdg0dIF+rvc17nvvcP6HBNeKhBLDaZ92RbkZqtXlhp39j2PY5ms/T8ZZSEiIpoqMzo8SnNud1cP1l6+Cjd89JqR17XXXYXgkCDU1TYaU7rHrOmTGk1pNjVfEialGVvGyb2OUpNkhpuo6Eg9nzRr25NmRB9fHyTNStCdTKSpW55JKfNb4e/np4Nml9H8bGppbtM1dxIkrJDmXk8vb30fobk90hlEtsdsznXGvp5UyiJN8fakudl+uyVwdXZ2wt+uyVTGy/2eJllOW1s7fH399H6T2j9vH29ERtqaqs2XlE/u/XMWHqXpVmrYOjq6jCE2UsPbqYZJWeT+VWmGlg4lsjyZx7G2T6aTdUhnKelstXzlIn07hCxDyiUdnkLkvlqHskVHR42qdXXmXPa/vckoCxER0VSa0eGxtqZeXZT99f199uTewJjYmJF7wOSCK22dEjCcPYLFnoSI5FlJ+r5H+as3EnQkXBQWnsK2Lbt0WJLQJk2jjY1NatygnkbuQZQaT5M8MmjLW9vV8FrdRCrLqKuttzWpqvmtlCsoOAhhoaE4caxQr1eWI712pQOKdFox7w90JTEpVtfESq90KYeUt7y8Sjd52j/ayF5QYKCeruhkid6PXZ3d+rMqhDGFjQTDkwXFermyL4qLyvS0iYnxxhQqLA4O6qZiuWdPtkH+ElFtTYPazwl6f4eEhCAkOBh5h/P1dgrpZLL9nd0oLDilv49Fgrx0eiksKNLTy7Ll/dDBPFRUVutlyzTNza26fOb+s/VCtpH1yXEtPllqHOtB/aB6mVeOkdx+IOuQGmNZtjnP3t0HdBO3zOOKlf0vPadluIRs83xwHDYZZSEiIppKbve2lp64cgFLUMHBvOfMKgkoVeqCL82Xrv48oTzHLv94ke4oI50vHMm6S0+VIzwyTHe8kLyTd+Q4qlTAk7I5hi7H3tZykZbmaOntK4/aKSpUAaqvX3d2kUeeSLCQDjJFKlDKeHnUitQwBvj763FSq2TeC3gs74TuHS3LkM4z8rgVGSe1ba7KJcuSHrSNDc3IO5qve5bXqdCcOXe2bmqVjheOZRdyDOx7+/r5+enmdrmv79jRAhX2TunnJC7InT/m/hO+KuT6+vjqwFh4okg/Hid9dhrk75bLftehrKlFB8PQsDAdYGS50hFl8bIFer1Cwo2Et5SURN0cLPtCnj0ovYCTjON81nbmF6ltqkRicgLmzrP1RJflOPb+FpGR4TqUyuNrZP/IfHL7gOwjqaWTWujysioduKR3s5w7kWpd8i4dWGQ7gkICdblsx/qUrpmUv7EuvebPWocqm/Tglv0pj3aS89XRRPa//KiQ0C3b36R+hEiNopwnjsNkP41XlrHOByIiouni9nMepcZHwoPcHyiPkXGHBBEJWvKXZhYvsd17NpnMWhkJIu6QjghirMfZSE2WhEq5n85ZLaCsV3fscDKN1XLpGqvBIV0b5u422DOXI2FXwqcVMs9YZZfQLM3w5vMWx1qu+ZzHS9euVGWXcGOrDXa2DVLDJo8dkmnd+QHiar7xjqMwj6UqvNNpXB1LK1zt/7HOB2fDzrUsREREk836ldtgPvNOmnslDNo/OsQZmUamlXmEuYzJJhfeiYQuCRLOwoRc/KWGbryLt6xzvGmslkvml+VMZBvsmcuxGhyFlXBiZbkS6lxtg0wj9yW6ExyFq/nGO47CPJbjTePqWFrhaj+NdT44G3auZSEiIppsbtc8isOHjummzYkICQ3RzYV0frCveXQWYuxrHs1nExIREdGFaULhUUiHCOl0II+ncfW3quU+LQkVUuPo6l5HIiIiIpq5JhweiYiIiOji495NZ0RERER0UWN4JCIiIiLLGB6JiIiIyDKGRyIiIiKyjOGRiIiIiCxjeCQiIiIiyxgeiYiIiMgyhkciIiIisozhkYiIiIgsY3gkIiIiIssYHomIiIjIMoZHIiIiIrKM4ZGIiIiILGN4JCIiIiLLGB6JiIiIyDKGRyIiIiKyjOGRiIiIiCzzqKqqGjY+u6WyohoNDU3o7elFf3+/MXRsPj4+8PP3Q3R0JJJnJRpDiYiIiOh8M6HwePjQMbS3tRvf3BMSGoJFi3OMb0RERER0PnE7PEqNY2lJOYJDgpGamqzffXy8jbFj6+8fQEd7B8rKKvV7WnoKayCJiIiIzkNu3/MoTdVCgmNEZLjL4ChkGplW5hHmMtxRV9eAja9sQt7RE8aQM4aGhtDX26ffnZHm9c1vbUdtbb0xZOpZKdf7SfaF7BPZN+TawMAAdu3ci+KTJcYQ18Y6BwYHbcOGhyd0xwgREdH7yu3waAYNqXF0lznPRMJKdVUNgoKC0NzYrC+89trbOrBj2x79PpPM1HLR9BnrHGhoaMSO7XvOOo+JiIjOB26HR7NzjJUaR0fmPK462Djq7OxCc1MLMjPTMTQ8jObmFmOMrRant68Pw+p/8t7X596ypTZJwux4NUGyTD2Nk2XrMhjLMGuY3C2XrFvml+VImeyZ42SZI+tyoyzucrZPZLjjemWYY3llGvth422blNcsa1dXN1qaW40xNrKsseYzmdsrL/k8FlfLcDXeFWfbp8vmcA7I+H71rudRwxzX6aws9ueAjGtSP6IcpyEiIpoObt/zuGPbbv2+9vLV+t1dE5m/quI0iopKsOaS5Th+vBDDKmgsWrIAnp6euun1vV0HjCmB6JhIrFi1BN7eo8OtXJB37ngPOQuzEBcXo4eVlZQj//hJvZyBwUEEBgZi2YpchBg1pD1qngP7Duvg6ufni1518Y6OidbTmMs3l+Hl5aUDkJeXp1r/UvT09loql7Bfj4cqi2xfxpw0zM2ao8tmlj0xKR6V5VUqNAzpAB6rtsO+LHV19Ti0P08HDXl5e3th8dKFat1Rerwj2XfHjp7ApWtX6t7wwtyeQQmeahlBwUFYuiwXoWEhKCutQGlJBdZcugK+vj76XtY9u/bp+VatWa5/HMi2vKvKOm/eHCTNShjZtpaWNnirfSTlzpyXgTnqh4B5/I4ePo7wsDD1uQ6RURF6P4kjh47hdHUtPGXfquOTkBiH3MU5Z+17Dw8P/V22WbY3PiFWf7dft5RXjl9KSpI+B/QxV+FLr+N0HXx9fNCnypaUnIAFavxYx0mm37vnIGJjo5Ghyi/G2776+sazzoGo6EgU5BcZQ4BZqjyLly5wWRbzHIiMjEDN6Vo1p4c6DssRFh5qWxAREdE08dqwYcN9xmdLyssq9XuKcf+iu9ydX2paCk4UI0yFlwQVniQnlKoQE58QpwNBsAo38fGxaKhv0hfTOXNn62DgaHBgEBUqeMXGRet5amvqkJ9/EktUMMpdPB/ps1PR3t6hp5GQJoHkhBovtURrVLiap4KcdPKRzkISysLDw3SN6NHD+cian6mXMzsj1VZ7poJE+uwUJKgyuiqXhIaD+4/q9V12xRpkZc9BjAonJ4xQK/eKmmUfUIFitQrQsj4JMMUqUEtTfmhoMNpa23Fg/xE9bunyRTrcDKv8V1hQjNj4GL2vHEn56+sadKCSgCL75OiRE2p/LMCy5bI9aXqflJwq14HMz88HlSrIR6mAFxDgrzs/6XKpbZDy+KsA2tzUqsNNRmaaDtKybTKtBE4JVbJt+XkFaliALreUoUKdE3JsJXSnptnOi+Nqmma1H9dethrzc+YiOTkRxafK0NPdo9cl23v8WKE+LktVWWX/SqAqUcdHjp+E+eKiMnR2dOofKnPVumW+spJKvU9lf8g6utXxuvSyVTqoyzqKikrVfh7Uj5VyJD8ObLdPBOqQax47Z9snYdfx3JTwGB4Rps6RVqxbf6k+p2S5rspingMS6FerdWWr4yz7m4iIaLq53Ww93bq6OtHW1oY4dREWERHhKuj4oP4cOr7IxVpCUHJygrrY22rlJBDOzkjRtVNyf5qEuYW52ToUSDgQgYEBav1y4W/T32U5QyqheXp66e8S9hYumq/D6FhBcSyyLglo2fPnjjTryzokiFZXnda1e6Z0FebMGsIQFbykNrCnu1t/r66uQYQKtFJbJaT8KalJutauRQU6V8x9Ep8Yq8JXnB4m+0TC2dDQIBpVAJJAJPtCmkyFBKDw8FB9TOSzaGxsUqEwVNfiyrZJOMycm6HDqZBtk1AlAVPWKQLUfpXQKOsT3SogSo3kfBWQAoMC9DB5v0Qdi6zsufq7bPu6q9bqHyGyrUJq9gYHB9Hb06O/Sy2gBFjzWEhou3zdGl1bJ+toVNshgc/cp7KOdFWO+rr6UfvdGavb54o7ZZFzwDwfiYiI3g8zPjxKaJELs3+Ar266Gx5WISA8RIWLRgwMDBpTuUcu6nK/WVlpJTZv2j7y2rPrgK79kSZDczoJMYcOHMWWt3fgjdc2o6K8GsNDtpZ+qYGSmqNDB47g7U3bdE9waXqW5lOrZF0SbhxrkYJVOJT736S51uThaQtJY+np7tXNpFvf3jmyPdIpo6urCz1GmBqPuU9CgoOMITYS6CSsyDLkOERGRaqg06Jr3aRGTZrEJUA2N7fqYbL9UVHhOrTJtsn+3PXu3lH7uarytF6Xfbiy37IBFZY8PWSfjA5JcuuALNckoUtqVneq7XzrzXf0e1+v2mfG8ZFA2qu+b3pjK3a/u0/Xess+FbIOOZ/k2NqX7WRhyVn73Rl3tm887pRlvHOAiIhoOszo8ChhpKqqRtfwbH37Xbz5+lb12qIDXHNTM9rbJ/agclNcfAyyc+aOvHIWZOkm37CwUH3hl/sBDx/IQ6AKibmL5mPd1Zfpe9RMEvqysjPxgWuuRFZWpg4Au1RIkfmsBofJJE379tsjtZlLli7UzdaTJTY2SgdSaTbu6uzSzffShCtN2DKsR98XeuYeS/nrQlKjZl8uuW9RmpGt1s6ORda1453dOqymz07DmktW4JK1K0c1z8u9q5dfuUbf0ym1jqeKy7Bty051PtnOGy8VjOV2BfuyLcjNVq8sNe7sex7HMlnbNxllISIimg4zOjxKc253Vw/WXr4KN3z0mpHXtdddheCQINTVNhpTuses6ZOaNGliNF8SJqUZW8bJvY5Sk2cGAblXTeaTZm170qToowKLdA5ZtmKRbuqWZ1LK/Fb4+/npoNllND+bWprbdI2fhAorpOnX08tb33Nnbo/cpyjbY3YAGo/sC1lGmwpW9sFXtleOgexvIR1ovNR+kG2U7Q4KDtSPYJL5pZbWR5VXwraQIOft443ISFtTrvmSMkngdBaupOlWatg6OrqMITYSFDuNYXKvZnCIdHBapJvZpRz96seGNFub5H5Z2RZpppaQL+HSz99fnTcNulxyX2SI3EvrULbo6Chd4+rKRLfP0WSUhYiIaLrM6PBYW1OvAo2/vr/PntwbGBMbM3I/mFx8pd1Twoazx7XYk4t68qwkfY+f/NUbCRhSy1lYeArbtuzS97FJaJNmUrmHT5rHZRq5B1FqPE3yyKAtb21Xw2t1U7Uso04FKN28qua3Ui4JY2GhoThxrFCvV5YjvabLSyt0xw8JZVYkJsXqmljplS7lkPKWl1fp5k/7RxuNJykpQe3zBlRUVOv5pcn0ZEGx3ha5r1FIYIpQwai4qFTX5kn55HhIgJSe0VLraN67GRISgpDgYOQdztfbJqTGcPs7u1FYcEp/H4uEd+nYVFhQpKeXfSLvhw7moaKy2jZNQIBaZje61EvI8uXh3VJuIe9HDuVh33uH9CNuhNyXKbWlMq/cciDrkFpiWbaQZezdfQCH1XrM5YzHyvaNdQ5Ib2pZvnSukmGTURYiIqLp4nZvawkIcjFLSJQere5lTwl6VeriL019rv48oVzw848X6Y4y0kvWkay79FQ5wiPDdCcFuc0w78hxVKmAJ2VzDF2Ova3lgi01ZNIzVh73UlRYomsLpbOL1FRJwJQOMkUqUMp4CSZS0xbg76/HSa2e1AxKrdCxvBO6d7QsQzrPyKNXZJwELVflkmVJb9rGhmbkHc3XPcvrVGjOnDsbqWmzdGcQx7ILOQb2PX/9/Px0c/spFeqOHS1Qoe+Ufmbigtz5Y+4/IQHFvre14z6RbZb9vGz5Ih3iTcPDQ/qRMnMyZ+t5zGFyO4H9sLO2Lb9ITVOJxOQEzJ1n633uWAZTZGS4vqdRHl8j+0Tmk1sGZL/Yjo2/DmR5R2zLlQ4qSUmJ6Gjv1KFb9r/0qpZ9dFRNU6iWUSNlnpOOlLQkvV9HrUMtQx5FJPtQHuUj56gjx31uZfvGOgdkfgm9Mk+T+jEitYyynPHKMtY5QERE9H5w+zmPUvsj97fJ/YFycXaHNDtK0JJaqsVLFhhDJ49ZQyMXbXeYnSjkQu9Iar0kVHqqEOUY/EyyXt3Jw8k0VsulawwHh3RtlbvbYM9cjoRdsyeyO6xss7ukhk0eNeStgpA7PzpczWdln7maxtXxs8JVOcc6B5wNO9eyEBERTSW3w2NlRbV+1qEEQPlb1fJuNlM6IzWOEjiliVje09JTXNY8EhEREdHM43Z4FIcPHRvpsequkNAQLFqcY3wjIiIiovPJhMKjkBrIhoYm/XgaV3+rWu7Zkh60cl8XaxyJiIiIzl8TDo9EREREdPEZu4cBEREREdEYGB6JiIiIyDKGRyIiIiKyjOGRiIiIiCxjeCQiIiIiyxgeiYiIiMgyhkciIiIisozhkYiIiIgsY3gkIiIiIssYHomIiIjIMoZHIiIiIrKM4ZGIiIiILGN4JCIiIiLLGB6JiIiIyDKGRyIiIiKyjOGRiIiIiCxjeCQiIiIiyzyqqqqGjc9uqayoRkNDE3p7etHf328MHZuPjw/8/P0QHR2J5FmJxlAiIiIiOt9MKDwePnQM7W3txjf3hISGYNHiHOMbEREREZ1P3A6PUuNYWlKO4JBgpKYm63cfH29j7Nj6+wfQ0d6BsrJK/Z6WnsIayPOIHD8vL094elq7y2FoaAiDg0MuzwsiIiI6/7h9z6M0VQsJjhGR4ZYCgkwj08o8wlyGO+rqGrDxlU3IO3rCGHKGhJW+3j797ow0r29+aztqa+uNIVPPSrlmmoGBAezauRfFJ0v090Z1rDa9sVX9YKjQ3604kX8SmzdtG6mdliAp+2F4eEJ3SBAREdEM4nZ4lBAmpMbRXeY85jLcUV1Vg6CgIDQ3NusgYq+9rQM7tu3R7zPJTC2XO8LCw7By1RK3aoozMtKwfOViBAUH6e8NDY3YsX3PWceNiIiIzj9uh0ezc8xEmiTNeVx1sHHU2dmF5qYWZGamY2h4GM3NLcYYW61Wb18fhtX/5L2vz71lS02bhNnxasZkmXoaJ8vWZTCWYdYyulsuWbfML8uRMtkzx8kyR9blRllcGdkHYyxTmqtDQ0PUu5cxxMacxyyrzCvrFt4+PghRPxQ8PDz0+H41Tm+D2g+O20ZERETnF7fvedyxbbd+X3v5av3uronMX1VxGkVFJVhzyXIcP16IYRWKFi1ZoO/Bk2bo93YdMKYEomMisWLVEnh7jw63EnR27ngPOQuzEBcXo4eVlZQj//hJvZyBwUEEBgZi2YpcHXxEj5rnwL7DOrj6+fmiVwWy6JhoPY25fHMZEq4krEnYWrFqKXp6ey2VS9ivx0OVRbYvY04a5mbN0WUzy56YFI/K8ioVwIZ0AI9V22Fflrq6ehzan6eDmry8vb2weOlCte4oPX4sZvkllIuEhFh0dXUjPj4WGSqsO+432cbCE0UoLirV2zyovs/JnI2mhkbMVtPLNHJMjh09gUvXrtT3yB4/VqiXLWalJKkyLTC+ERER0fnGa8OGDfcZny0pL6vU7ynG/Yvucnd+qc0qOFGMsLAQJKjw5OEBlJZWID4hDr6+PggODtJBp6G+CWsuXY45c2eP2bFjcGAQFSp4xcZF63lqa+qQn38SS5blInfxfKTPTkV7e4eeRkKa1JrJvXtSa7ZGhaB5KshJ0610FpJQFh4epmtEjx7OR9b8TL2c2RmpOni1tLSp5aWoIBbnslxSE3dw/1G9vsuuWIOs7DmIiY3GCSPUyr2iZtkHVGBcrQK0rC9WTVOsArU05YeGBqOttR0H9h/R45YuX6SD3/AQUFhQjNj4GL2vHEkN7uGDx5C9YB6Wr1ikyp+Gjo4uVFed1oEzMirirP1WXVWLk2qZy1Yu1gFetrm6skbfkyr7TaaR/VKvvqeooBij5guPCFP7pBXr1l/KjlJERETnObebradbV1cn2traEKcCooiICFfhzQf159DxRWrPKitOIzk5QQU1W62cBMLZGSm6dlHuUZQwtzA3WwW/FQgI8NfTBAYGqPVLEGrT32U5QyqheXramnQl7C1cNF+H0bGC4lhkXRJas+fPHWnWl3XoUKZCnPR0NqWrcCfPyxQhKjCGqkDd092tv1dX1yBCBdoktU1Cyp+SmgRPLy+0NLXqYY5qa+r1MpKMsCz7IDUtGQFqO8ci21tzuhZxCbE6vAqp9czITIXPGDWqREREdOGZ8eGxsb5JBxT/AF/dhCqtq+HhIaitbcTAwKAxlXskBMn9d2Wlldi8afvIa8+uA+ju6kafcU+mTCdNsIcOHMWWt3fgjdc2o6K8GsNDtibeoKBAXZN26MARvL1pm+4JLk3P0mRslaxLgqa/EQpNwSocyn2EQ4NnttHD08P4dLae7l7U1zdi69s7R7ZHOql0dXWhp6fHmGo0mScgIEDvX5MESDMsOzL3W4jREcbk6+ML7wncA0tERETnnxkdHqVJt6qqRtfObX37Xbz5+lb12qIDXHNTM9rbJ/agclNcfAyyc+aOvHIWZOkm37CwUB2U5L69wwfyEKhCYu6i+Vh39WX6nj2ThL6s7Ex84JorkZWVqcPtrnf36flk/ukmTfv22yO1mUuWLtTN1kRERESTYUaHR2nO7e7qwdrLV+GGj14z8rr2uqsQHBKEutpGY0r3mDV9UuOWkBg38pIwKc3YMk7udZSavNzFOZg7LwNR0ZF6PmnWtifNyj6+PkialYBlKxbppm65/0/mt8Lfz08HzS6j+dnU0tymawC9vEf3cnZGmpo9vbz1/ZLm9sQnxOrtMTsAOZJ5Ojo6RjWNy/Z1d49dUyn7S+ZpaGgeVesrx8lxvxAREdGFaUaHR7knLyDQX9/fZ0/uDYyJjUF9Xb0OPrrJ1AO6s4f5uJjxSAhMnpWk73uUv3oj4U1qOQsLT2Hbll26w4eENulh3djYpIOSTCP3IEqNp0k6nGx5a7vuRCJN1bKMutp6PZ/Mb6Vc8izEsNBQnDhWqNcry5Fe0+WlFboDin2T8ngSk2J1Taz0SpdySHnLy6t087X9o43syTzS0/tUcZneRplPOsM4C48iLW0W2lrbcGj/Ud3pSDpAHc8rHLep3tfHxxaQu7otHR8iIiKaudzubX26ulYHgYTEeP1YGndI0KuqrFbhz8dlr1t5TmH+8SLdUcbsnGFP1l16qhzhkWG6g4lkl7wjx1GlAp6UzTF0OfYalvsVpTk6P69AP6qmqLBE1xZKZ5ew8FAdMKWDTJEKlDJe/uKK1DAG+PvrcVKrJzWDco/gsbwTune0LEM6z8ijaGSc9HB2VS5ZVnR0JBobmpF3NF/3LK9ToTlz7mykqqAmHVkcyy5sYVYenB6oe0X7+fnp5vZTRaU4drRAhcBTaGluxYLc+WPuPyHzSA1ugSq79CyXeePi4yDdtCXUjtXb2l9tl3xuqG/U4VuCZvb8TP2XaMxp7Htby/ZKmO7q7Nbb16TCt9SKynYTERHR+cft5zweOpin/z613B8oj5Fxh3QmkaAlf2lm8ZLJf9afBCrhbjAxH4491uNspEZNQqWnCqvOagFlvQMqGDubxmq5dI3h4JCusTyXcGUuR8KuhE9XrGyjPdke+/KN9QzNsUz0+BAREdHM4fZVXGrJhDT3Shi0v1/OGZlGppV5hLmMySahZCLBRELjWMFRSPjy9fMdN1TJOsebxmq5ZH5ZzkS2wZ65HCvBUVjZRpPUPO+UP7mofkAICZ7SgUnCamDg2L20TVb3AxEREc1cbtc8isOHjqG9bWI9nUNCQ7BocY7xjc43Uqt5LK9A/6WbIeORRdIsLc3jiUlx+jsRERFduCYUHoX82bmGhibdZOnqb1XLPY7ycGupceRfGLkwSIiU+yGl1tJq8zgRERGd/yYcHomIiIjo4sMb0IiIiIjIMoZHIiIiIrKM4ZGIiIiILGN4JCIiIiLLGB6JiIiIyDKGRyIiIiKyjOGRiIiIiCxjeCQiIiIiyxgeiYiIiMgyhkciIiIisozhkYiIiIgsY3gkIiIiIssYHomIiIjIMoZHIiIiIrKM4ZGIiIiILGN4JCIiIiLLGB6JiIiIyDKPqqqqYeOzWyorqtHQ0ITenl709/cbQ8fm4+MDP38/REdHInlWojGUiIiIiM43EwqPhw8dQ3tbu/HNPSGhIVi0OMf4RkRERETnE7fDo9Q4lpaUIzgkGKmpyfrdx8fbGDu2/v4BdLR3oKysUr+npaewBpJGGRgYgIeHJ7y8eCcFERHRTOb2lVqaqoUEx4jIcJfBUcg0Mq3MI8xluKOurgEbX9mEvKMnjCFnDA0Noa+3T787I83rm9/ajtraemPI1LNSLgI6O7qw9e0d6tjmG0PGJ0Fz1869KD5ZYgxxn5wHcj7IeTETDQ7azp3h4QndVUJERDRl3A6P5sVWahzdZc4zkQt2dVUNgoKC0NzYrC+q9trbOrBj2x79PpPM1HLNNIFBAVi2YjEy5842hlBDQyN2bN9z1rlORET0fnM7PJqdY6zUODoy53HVwcZRZ2cXmptakJmZjqHhYTQ3txhjbDU0vX19GFb/k/e+PveWLbVYEmbHq+WRZeppnCxbl8FYhlnL6G65ZN0yvyxHymTPHCfLHFmXG2VxZWQfOCxTlmXuF3Max7KZrKzX2b728PBAUHAQfH19jCE2zqa3arx9as/Vtjk7/vbHReZtUj9s7JfhbD6Ts/LJ5341jx6vzh3HcpnLdRzuqjxERESTwe17Hnds263f116+Wr+7ayLzV1WcRlFRCdZcshzHjxdiWIWTRUsWwNPTUzc/vrfrgDElEB0TiRWrlsDbe3S4lYvtzh3vIWdhFuLiYvSwspJy5B8/qZczMDiIwMBALFuRixCjhrRHzXNg32EdXP38fNGrLszRMdF6GnP55jK8vLx0aJJ79lasWoqe3l5L5RL26/FQZZHty5iThrlZc3TZzLInJsWjsrxKBYIhHcBj1XbYl6Wurh6H9ufpECEvb28vLF66UK07So93JMHiyKFjOH26Tm+fhJKoqMiRZcq+PXb0BOLiY1BaUgEvVZZBtZ/syyasrNfcT4MSLNU0EhaXLstFaFiILsfePQcRGxuNDPUDYVS5VKDs6x9AUFCg3n+BgQFnTT8WV/vUftsqyqr0jxKZJjtnHmZnpJ61jLGOv3lcIiMjUHO6Vs3hgTWXLtdPFnB13oxXvpLiMhw/VqinE7NSktT+XDBqv/j6yH7pR1JyAhaoc3q88oSFh9oWRERENAm8NmzYcJ/x2ZLyskr9nmLcv+gud+eXWpSCE8UIUyEjQYUnDw+gtLQC8QlxuqYqWIWQ+PhYNNQ36QvlnLmzR0KNvcGBQVSo4BUbF63nqa2pQ37+SSxRASZ38Xykz05Fe3uHnkZCmtSGnVDjpQZozdqVmKcu6tLJRzoLSTgKDw/TNaJHD+cja36mXo6Ejq6ubrS0tKnlpSBBldFVuSQQHNx/VK/vsivWICt7DmJUKDphhFq5V9Qs+4AKC6tVgJb1SXAqVoFamvJDQ4PR1tqOA/uP6HFLly/SoWpY5bTCgmLEqoDkWKsnTlfXoaryNC5V2yfzSRCRDlGBgf56H8n2lat9LYHtEjWNBJvwiDAUquMREBBgeb2yr48eOaH28wIsWy77KU3va9mXiYlxKjx5GLclBCIyKgJlap31dY16W7Pnz9X7slaFoa6uHn38JKTbT+9ovH0qtd/msZNtk1C3cvUSW5O5ml7OTwnlMp2r428eFwnDqy9docqaqcOiq/lclS9dnUeyn1taWrFu/aV6ftnm43kF6Fbn16WXrdLHIjk5Uf2oKlXnxaB+DNZY5fFXQZaIiGgyud1sPd26ujrR1taGOBUQRUREuLoI+6D+HDq+yIW4suK0uvgmqIu2rXZMLuyzM1J0LZHcoygX9oW52Sr4rVBByV9PIyEqQl/U2/R3Wc6QSkqenl76u4S9hYvm6zA6VlAci6xLgpSEJLNZX9YhQbS66rTuqW5KV6FLarVEiApuUmvX092tv1dX1yBCBRMJgELKn5KaBE8vL7Q0tephjgYG+vV08hKyfZddsXpkXwsvL28d9swaMwmtCSrwSeiUYO9qvea+jk+MVaE8Tk8j+zpnwTwdSH1V2HIkQf6KdZeM1ADLuiXkSU99CV6uONunl1+5RtfimQLU9qamJetjJeXWNdLDar+ofS7fXR1/kxwXcxor81ktn73u7h40NjYjc17GyDkg94qmq/LX19WfdZ6Y6yYiIppsMz48NtY36fDgH+Crm+WG1cU9PDwEtbWNKkgMGlO5RwKN3EtWVlqJzZu2j7z27Dqga3akOdCcTpo3Dx04ii1v78Abr21GRXk1hodsLf1S8yW1QocOHMHbm7bpnuDSDClNt1bJuiS8ONYQBatwKM3IQ4NntlFq6Jzp6e5FfX0jtr69c2R7pMNFV1cXenp6jKlGkxpbWe/WzTv07QSnist0SLHn6+dzVtkkmPT19er942q95r4OCQ4y5raRY2oGJ0ey/5rUfjxy6Lgq27vY9PpWXZtndb8626cSuhxDvfM96vr4mxyPi6v53CmfSQKtnP+yTHM/y+tkYYlb5wkREdG5mtHhUWqZqqpqdE3N1rffxZsqRLz5+hZ9IW5uakZ7+8QeVG6S+92yc+aOvHIWZOmm17CwUB0A5J64wwfyEKhCYu6i+Vh39WWjaobkQp+VnYkPXHMlsrIy9cV917v79Hwy/3STpn377ZGarSVLF+rm47FIWJGm4cvXXaKb2KsqqrFNhTUJPq7IvZ1GhaXb63Wl5FQ59qog76nWITWUUiMny5xOVo7/WCY6nxVe3l66VtZ+Xy/IzVavLDVu7CBOREQ02WZ0eJSmve6uHqy9fBVu+Og1I69rr7sKwSFBqKttNKZ0j1nrI7Vf0gRrviRMSjO2jJN71qRGLXdxDubOy0BUdKSeT5q17UlzoY+vD5JmJWDZikW6yVKeSSnzW+Hv56cDR5fR/GxqaW7TNXwSGKyQJlhPL29975y5PfEJsXp7zOZfR7Je6QAj4+VexUvVfpaOPaerpLOFjWyv3Mdpknna2trh62urJXO1XtnHMo3MI/OapMOI9Aa2HybkB4PcIzl7TpruCCLLkZDrrPZ0LM72aYM6no41q85YPf6OrMw3kfJ5+3jrTlkhcu+vsZ/lJfsnOjpK7Wdr5wkREdG5mtHhsbamXgUPf31/nz1p7oyJjRm510surNL+2NHRpe/Dc0Uu5smzkvS9ePJXb+RCLqGlsPAUtm3ZpTtTSGiTzg+NjU26eVymkXsQpcbTJI8M2vLWdjW8VjepyjLqauv1fDK/lXJJr+Ow0FCcOFao1yvLkd7L0plDOu5I+LIiMSlW18RKr3Qph5S3vLxKN23aP9rInjR5bt+2Bx3tnfp7Z0cnWlXIk7BnkuZQaTKWUCNlkw41tTUNav8l6P1oZb1JSQl6ngo1r4yXZtYTxwtx/FiB3rf2ZJkS3pubW/XyzP1h6z1sjbN9Kp1UmhrOHL/xWDn+Y7Eyn5XySW9qmVeCu5w7couEdBaSWk3ppCRk3r27D+DwwTw9LRER0XRwu7f16epafaFKSIzXTZfukKBXVVmtwp+PvldwPPK8uvzjRbrzhnTScCTrLj1VjvDIMN3ZQF1/kXfkOKrUhVrK5hi6HHtby8VYmhXz8wr0I2SKVJCSWiPp7CKPNpEQIx0dilSglPHy10ykhjHA31+Pk9o1qRmUGp9jeSd0T1lZhnSekceqyDjpaeyqXLIs6SnbqEKD/IUV6Vlep0Kz9P5NTZulO2A4ll3YQsmZHsd+fn66uf1UUakKGAU4WXAKLSqALcidP+b+E+FqO1vVNHq9+UW6p7H0Yp+XlaHLJeFEQlxKSiL27z2st1FqC6UXb5Jx/Kys13Ff632pgrX0UJegaL8tUlMntcrlZVU6KEmvbTkXItVweTc75ozX29rZPp2XPUc3H8s+lW2rr2tQ25Y0ckzktgM5vyW0y7F3dfzHOi4yztV8VsonAbSrs1uPb1LBU2oZZR4J8fK4Hjle0itd9r08fkr+TY1VHiIiosnm9nMeDx3M071e5f5AeYyMO6QziQQt+Uszi5csMIZOHrP2RS7O7pCaMDHW42ykVkhCpdx/56wWUNYrHRqcTWO1XLrmbnBI11i6uw32zOVIaJEg4opML8HDWwUQ+x8E5rMQL127Uo8bVNONVzZX67WyL+2Nd1ysOtd96m6ZTVbnc1W+sc4dV+cbERHRVHL7aiq1H0KaeyUM2j8ixBmZRqaVeYS5jMkmF9iJBAQJJ84CioQgeZzMeBdpWed401gtl8wvy5nINtgzl2MlOAqZXu4rHK8mWca5Kpur9VrZl/bGOy5Wnes+dbfMJqvzuSqfDHccJ98nUiYiIqLJ4HbNozh86Bja2ybW0zkkNASLFucY32gms695lHBJRERENKHwKKTjRENDk75PzNXfqpb7sSR8SI2jq3sdiYiIiGjmmnB4JCIiIqKLz8RuBCMiIiKiixLDIxERERFZxvBIRERERJYxPBIRERGRZQyPRERERGQZwyMRERERWcbwSERERESWMTwSERERkWUMj0RERERkGcMjEREREVnG8EhEREREljE8EhEREZFlDI9EREREZBnDIxERERFZxvBIRERERJYxPBIRERGRZR5VVVXDxmciohmprgxorQV6OoChIWPgBchT/Zz3DwbC4oDYVGMgEdEMw/BIRDNWXxdQlgd0tRkDLiKBoUDqAsA30BhARDRDsNmaiGasizU4Ctlu2X4iopmG4ZGIZiRpqr5Yg6NJtl/2AxHRTMLwSEQzktzjSNwPRDTzMDwS0YwknWOI+4GIZh6GRyKakS7kXtXu4H4gopmG4ZGIiIiILGN4JCIiIiLLGB6JiIiIyDKGRyIiIiKyjOGRiIiIiCxjeCQiIiIiy/i3rYloRjr8lvFhCsSmAtGzAB8/9cVDvdR/BXu7gdoSoPm0nmSU0CggbjbgH6J+cRs/uQcG1LTVQHWh7bspIQOIUcsX9WXA6WLb53Ox6GrjAxHRDMCaRyK6aPgHARnLVMDLVMHRXw2Q4CjUu1+gLfiFRBrDDEnzgNRcIDDsTHAU3t5AVLKaZ44xwOCrluOhphscBLpajYFERBcQhkciuih4eQGJKggGRwBDKtg1VgL5222vtnrbNN5+KjxG2T4LCYaRSeo/lGrejhageL+tRrT2lAqHA7YwGRptW7bJX4VH0d8DtDbYPhMRXUgYHonoohCbpoJjODA8bAuOlSeAvl7bq7HKVkvY22ELlkJqICMTbAGxvRkoPagCpHoXNSo89nTaPnv72GolhQRPCaCiu932TkR0oWF4JKILntQMhkTbmpP7ulRYrDZGGNoagJN7gYI9tmAowmJtQVDf26jCpTRD2zNDpoRRqYUUAcG2WkoZ191mG0ZEdKFheCSiC57UCPoE2D53Sg2jUWuYuRJYcOWZV/alts4xwqxNHOg506xt8gtSL7lnUpGayy4jKMr9jhIeB/vPDCMiutAwPBLRBc8/GPBS/7UbHlJhUIU9ISFRmpyFBD4vb1uNYWeLrXnb29c2rr/v7FrHkIgz4+1rGGU9QnpuMzwS0YWK4ZGILngeZq9qO22NQP5OoOyICocqIAoJjhIUpXl7pCO2w7zSBB4ap/7jqcKmBFGzVtIvQIXPfqCnXS3HuDeSiOhCxPBIRBe8fhXy5N5ECYXSO9pskpbax8S5tnsbde/oOttwaYo272kMCAFiZtk+y3ypi4GQcDV+CGg6DbQ32cYNqAAqtY1N1WfumyQiuhDxIeFENCNN5kPC5R7FtAW2h3wLCZLShC3N1WKgHzhdpIJfle27kOc7RierD0bNo4RJ/ZxH9V3mlYeJV+TbxonZS2z3VkrnmaoTanyNMWIS8CHhRDSTsOaRiC540kGmqtB4fI7UQKoAqHtFqxAoNYclh0YHR1GjwmRL7ZkaSDNo9nQAlQWjg6PwMu6f7JP7HfmYHiK6gLHmkYhmpKn684S+fkBguK1HtNnk7Io0devnPTae3XnGJMv1C7ZNM9lY80hEMwlrHonooiL3M0qNotXgKOQ5kC11zoOjkOVORXAkIpppGB6JiIiIyDKGRyIiIiKyjOGRiIiIiCxjeCQiIiIiyxgeiYiIiMgyhkciIiIisozhkYhmJP3XXIj7gYhmHP5niYhmJP9g48NFjvuBiGYahkcimpHC4owPFznuByKaaRgeiWhGik0FAkONLxcp2X7ZD0REMwnDIxHNWKkLLt4AKdst209ENNN4VFVVDRufiYhmpLoyoLUW6OkAhoaMgRcg6Rwj9zhKUzVrHIlopmJ4JCIiIiLL2GxNRERERJYxPBIRERGRZQyPRERERGQZwyMRERERWcbwSERERESWMTwSERERkWUMj0RERERkGcMjEREREVnG8EhEREREljE8EhEREZFlDI9EREREZBnDIxERERFZxvBIRERERJYxPBIRERGRZQyPRERERGQZwyMRERERWcbwSERERESWMTwSERERkWUMj0RERERkGcMjEREREVnG8EhEREREljE8EhEREZFlDI9EREREZBnDIxERERFZxvBIRERERJYxPBIRERGRZQyPRERERGQZwyMRERERWcbwSERERESWMTwSERERkWUMj0RERERkGcMjEREREVnG8EhEREREljE8EhEREZFlDI9EREREZBnDIxEREdEUaDgBVLUZXy4gHlVVVcPG52nR1wX4BhpfJuoQ8PjjxmeDVzgQsgS46iYg2tsYOAlqXwNeegXIuQ9YG2cMdGFAbWP3ABAQCpxLUXb8B3BMvX/0h4Djqo/9txq/V5Xpd6psxjAiIqL3U1cRsPl/VWCqNgb4qevXB9W1+Rp1jfYyhk1QXwfQq95Dgm3fJ+rVL6nyrQC+eIcxYKqoffHHh4HBecBnvgaca/RxSaW5vu5JyFgWTGvNY28n8I9fAPs3GgPOka86ILMusb0Sk4CWLcDzj6h3Y/z7peBvwF+/o96N70RERBe6rkPq2qfCUlU9ELUOWPlJICkRqH1FDf+peh80Jpyg936plqNetcb3GS8dWHMtkHv9NARHZd9rwMsqY0nWmmrTFh4lDb+sDrps1NxVxsBzFHMl8OHPGK9/Bz6oTlZJ+nl1tvEm+bXS3mZ7DRjDHHUZ49u7jAHjUT999LTyE8iBrKvPGN43xjRurWcCRrZVvTuSGlFzHwyohH3ihCqPuUPUP+qWEuBkhVrGWP/A1XR6ueo15ngiIrp4qWvd5qfVpSQYWPsQ8ImbgSXrgeu/DXz0BjVeXVu2brNNas/qNVGm09ce9ZLPI9cuw5RcW81rvbnusZjTGNdcfQ22K0OKyiULZhlfjGn1shzmmwzzVLbqURlLspZkrqk0Lc3WshGv/EptlNpJN24AQiKNERNlNFsnfVGdmIuNYYr8unlJJe8l6hfOylA1QB3AN38GlNj/TIkD1quTOdP8GaAO3mtqmopG47vim63C6F1qUq8xmq3VdC+pfxi1EeofxHds09jTTc1mdb0Sov7R/MuH1QcX6xmLW83W6h/SjkfUcBWeRzhsqzlPlirTCbVNmvqHfsV3gVNSNlVGLVbN9301n5/ta8su4MVn7P7x+KgfVF9WYT3L+E5ERBe1PnWdePJ/1GXnc+qa5VhBpK4d7/0VaEhS1w0VKPXtXG5eE3VTs/FZjFz/J3BttdJsXaWu/f9Ur8Fxrnu1m1QeeMH4osj1Pmm/ur6q7dTLVtnjryo7wMgBZp5IV99l+eY11Vftr1vUfpuM2sn2JhUeHwb81bX9hq+pZQcYIybZlNc82gfHj35rEoKjnQFJ+OrEkVeVCpRvv2E7CAskOConnlfBsUGFILUDv6hC1u0qJIWog/nOP2zjhQSuCvULIFeFrM//Wp2Mt6qTJV+FzleNCeypMPqqBEd1hNerZY51Yq78unrlGp9ViL3hKttnZ+t55VnbeKfUyTXyi8ruZdZumo6pf7THStRJqf5B3a6Wf8tX1baqbd+sttuxGb9K7bdb1DHR06jPO34MDH1CzaeGfUiCbh1w4F3btHLyv6aWPagS6kfV+C+q10r1D7PkN+o/Bu/3/QFERDQjlJXa3lPtKnRGqGvlSmkhNIOj4u41cb26nmZKLYp6fVB9Xr/ANnzC19Zx9Kk88U8V8vwutV0rb39QrTve4bpXoNahgqOXut5fr8La59UrvVDlDgtt6iVHgLX3qkCptmOJurb27VHbMUn3uUnGkqwlmUuy11TVQE5peBxQB3Tjo+rXRrkK7X4q3D1pq04d63Va7XR31T5ju7dQXq8+rkJWIrBYhR8zvWepk/WL6sRaP8/23TdV/SpQJ96gClkqV+mDf6IaiPoIsCZdndTqrE5aqwLfv6t5jNA3ol2FqPtV8FIf16r1jdRcOvBVad/XqLHzVSE2RD47Wc8KddIN7lShz/xlMxZ1Ir5pbKP96z118o1QYTJvr1rf5eoflfqH66uWH65+HV3xATVOmvEdTuZsVY5wVS6ZJkXts8FwVRb1K0zKnaL2n/z7HDROuJOb1aarbb3iTjVctkW9lnxazavKXKTWSUREZIYU8/on2tV16rWn7V7/0JfSCV0TA9X11FcqbNRLPgdKCj2Xa+s4Dr1tuy6uvdl2rfSNUplA5YlAue4ZFSsndqlp1PuyO9Q61TXSW73WfM52bXRl1kdVhohV+UBtx8ob1PLVsGa7FksrqlVmGitLyUuylrdaqGSvjSpQSxabbFMaHoeHgaEpbBSXamupUZTXZ1Swy1IH770HVII3w5I6iFXqAL+mfi08+T3gj3erAy7j1HA5vrJj5T1mtkx8Rpz6JZDk0JvrmArB0qwbrg50jpPg6Iyz9cSrMCsjmnWSdcL4lSW/UOxfZu2mpn7xyY+hiDm2r6YkWb7Sctr2brL/x30W9Q9T/k2aalXQlnszdtxj24f6pdYv62uv0JMQEdFFzstME3KxM/Q2qmvIcdureo+6hqowKbcDntM10c5kLcdRg1z31DLT7VsXZ6lrrHprr7F9bZDrX6L6P/vrqQqcMerlSqgsyOSv62RGKmwmncpgksUm25SGRx+1U274KhCdAvSrAHLV7cCNXx/7lTDXmGmCAlWKX2uk/pL3bMPe+xXw6t/UwQ4DFt+kQpgKQFnqYE+Imk96jbU8O83NtcavLPmFYv8aNwBOthC139T+W2r3Wq1+ba2WDkpERHTRMysryk7a3kW0ukbc/hPba7a6jkizoJt1LzOWfhyOSsKOlXoDfcaHKZaoMtNYWUpekrWkHJK9rrvblsUm25Tf8yg3a8pNm3Lz5ks/V0GuyRgxFdRRlF8hA/22r3VFav3rgVs+AyxZAaSogDlo1wsqWu18qS6uOWH7bjr2ArBLDbPvzJWjDsb1n9c5CgcfU7+kZEUWOVtPtXRuUSdgnLQTn4t5QJR6a8i3fTWVGLcCxDr8KnNHXLr6fyos++cAi9Q+1K+lQKr6D0WOjCMiooteyCXqeuEFVDwHVDn2hD4EnFLXkcA5tmvoZF0Tp+ramiCdYtQyT9pf59Uy69VbuHHdizeujUVltu+a+lxrlzHeD5KxJGud9x1mhBkg5f0fEiAnWJXsqFMdzMN7ba+DrwF//4Vathqeusw2Xn4Z9B1TJ0CdGt6mpntKfbavNZQApE7mFhUW31Qnt0xz4llgxyYVvCpGN99qicBH7wC81LhXnlbLNgY7Mg9WlTr5GmR9Y6znpPr8ngp7IdcCmbbJJ85PBbrLVTDeoU6azWqdavlV6vPbW1RZVwGLQ43pJiBThW95sOt7j6p9o7Zb70e17X//EbB5km7wJSKi85y6Dn3wX9U1pxp49QfqWqeuRXJt3qWuqX//o7o+qTCzQl3vtAleE3Vtn7qmlqlrUYua55yurSqHmPlh5CXN1cqSD6jtUCHwnSeAcskPan0vPa6u+WobFqmQLFLUtTFcXRtPPgz83z/UdqrX039QI6SM7xPJVpKx7DPXVPHasGGDdCSfcl4+wBwV6k7tB4aHVLI/l8RUA+xXy+lRB7ryoO1VVQj0hwPzvwBckWGbLEGdWEXvAIVvA0ffAprUr5Rklfgkz2VdoZ9Sg6TFajnq10Lh67Zp5KQMuVKFxBt1z3x0nlShSS07Vg1LUTP4JKh/I+pkKntP/QpJBubGy5pGi1Lrr9utptkG5Kuy5q5U8zqsp0R9tl/PWMrV/PJLxyyrvXq1zeXqH2nK9frJOoiaDwSoDct/Q73U8guPquXm2GpLw4yfCI7ziLHWUbgR6J0HLJRjpAZmqP1WtdO2XCl7pdr+uE8A1y23TU9EROSjroeZ6rpRl6euE/ts1+baUnX9V9enq76hxtmFGcdrr5VrYlKaml5ds8rUdf2khwp52RNbjlzj2tX10swPIy+VD5YvURNEA7MTgWK1vHzJD9tVFghR67tbhUfzfkV/YMEqlSvU9jWojNDQrq71KjwHqeBaH2osp1PNu1W9G9dTxzyhOUxzLvK2AB3NwI0qOPpNcYg9P/88oTsG1UkiT1tXv4p0z2dnetV06uUXpMpnf5PsOZCHcsuvkFE1mFOwnlEG1PLVer3UenVvtEk0WX92kYiILnDGtcjl9WIC18Qxc8QUXVvlUXmDagNCxsotahsH1Dj77XtzgwqwOZj6P304FpXmpNf7dGSsaQ+PREREROezvhPA3x8DvK4EPnyd7miNkxuBzZuAqFuBT6y1TXehYngkIiIictPJZ4F3tuHMX6HxAkIuBz568/t66+O0YHgkIiIimgijeV5Mxe1iM9W09LYmIiIiuuDI/ZChttfFEhwFwyMRERERWcbwSERERESWMTwSERERkWUMj0RERERkEfD/Ae2I8fD/Tt0gAAAAAElFTkSuQmCC;rounded=0;" parent="WIyWlLk6GJQsqaUBKTNV-1" vertex="1">
                    <mxGeometry x="330" y="-200" width="334.19" height="250" as="geometry"/>
                </mxCell>
                <mxCell id="UGwLT5LjvOKNq53BJIgy-6" value="" style="edgeStyle=orthogonalEdgeStyle;rounded=0;orthogonalLoop=1;jettySize=auto;html=1;" parent="WIyWlLk6GJQsqaUBKTNV-1" source="UGwLT5LjvOKNq53BJIgy-3" target="UGwLT5LjvOKNq53BJIgy-5" edge="1">
                    <mxGeometry relative="1" as="geometry"/>
                </mxCell>
                <mxCell id="UGwLT5LjvOKNq53BJIgy-3" value="&lt;h3&gt;Step 1: Email Info&lt;/h3&gt;" style="whiteSpace=wrap;html=1;rounded=0;" parent="WIyWlLk6GJQsqaUBKTNV-1" vertex="1">
                    <mxGeometry x="160" y="80" width="120" height="60" as="geometry"/>
                </mxCell>
                <mxCell id="UGwLT5LjvOKNq53BJIgy-8" value="" style="edgeStyle=orthogonalEdgeStyle;rounded=0;orthogonalLoop=1;jettySize=auto;html=1;" parent="WIyWlLk6GJQsqaUBKTNV-1" source="UGwLT5LjvOKNq53BJIgy-5" target="UGwLT5LjvOKNq53BJIgy-7" edge="1">
                    <mxGeometry relative="1" as="geometry"/>
                </mxCell>
                <mxCell id="UGwLT5LjvOKNq53BJIgy-5" value="enter email&lt;div&gt;enter password&lt;/div&gt;" style="whiteSpace=wrap;html=1;rounded=0;" parent="WIyWlLk6GJQsqaUBKTNV-1" vertex="1">
                    <mxGeometry x="160" y="160" width="120" height="60" as="geometry"/>
                </mxCell>
                <mxCell id="UGwLT5LjvOKNq53BJIgy-10" value="" style="edgeStyle=orthogonalEdgeStyle;rounded=0;orthogonalLoop=1;jettySize=auto;html=1;" parent="WIyWlLk6GJQsqaUBKTNV-1" source="UGwLT5LjvOKNq53BJIgy-7" target="UGwLT5LjvOKNq53BJIgy-9" edge="1">
                    <mxGeometry relative="1" as="geometry"/>
                </mxCell>
                <mxCell id="UGwLT5LjvOKNq53BJIgy-11" value="no" style="edgeLabel;html=1;align=center;verticalAlign=middle;resizable=0;points=[];rounded=0;" parent="UGwLT5LjvOKNq53BJIgy-10" vertex="1" connectable="0">
                    <mxGeometry x="-0.1467" y="3" relative="1" as="geometry">
                        <mxPoint as="offset"/>
                    </mxGeometry>
                </mxCell>
                <mxCell id="UGwLT5LjvOKNq53BJIgy-19" value="" style="edgeStyle=orthogonalEdgeStyle;rounded=0;orthogonalLoop=1;jettySize=auto;html=1;" parent="WIyWlLk6GJQsqaUBKTNV-1" source="UGwLT5LjvOKNq53BJIgy-7" target="UGwLT5LjvOKNq53BJIgy-18" edge="1">
                    <mxGeometry relative="1" as="geometry"/>
                </mxCell>
                <mxCell id="UGwLT5LjvOKNq53BJIgy-20" value="yes" style="edgeLabel;html=1;align=center;verticalAlign=middle;resizable=0;points=[];rounded=0;" parent="UGwLT5LjvOKNq53BJIgy-19" vertex="1" connectable="0">
                    <mxGeometry x="-0.55" y="-2" relative="1" as="geometry">
                        <mxPoint as="offset"/>
                    </mxGeometry>
                </mxCell>
                <mxCell id="UGwLT5LjvOKNq53BJIgy-7" value="is&lt;div&gt;email&lt;/div&gt;&lt;div&gt;&amp;amp;&amp;nbsp;&lt;/div&gt;&lt;div&gt;password&lt;/div&gt;&lt;div&gt;valid?&lt;/div&gt;" style="rhombus;whiteSpace=wrap;html=1;rounded=0;" parent="WIyWlLk6GJQsqaUBKTNV-1" vertex="1">
                    <mxGeometry x="165" y="250" width="110" height="100" as="geometry"/>
                </mxCell>
                <mxCell id="UGwLT5LjvOKNq53BJIgy-9" value="Go button disabled" style="whiteSpace=wrap;html=1;rounded=0;" parent="WIyWlLk6GJQsqaUBKTNV-1" vertex="1">
                    <mxGeometry x="350" y="270" width="120" height="60" as="geometry"/>
                </mxCell>
                <mxCell id="UGwLT5LjvOKNq53BJIgy-22" value="" style="edgeStyle=orthogonalEdgeStyle;rounded=0;orthogonalLoop=1;jettySize=auto;html=1;" parent="WIyWlLk6GJQsqaUBKTNV-1" source="UGwLT5LjvOKNq53BJIgy-18" target="UGwLT5LjvOKNq53BJIgy-21" edge="1">
                    <mxGeometry relative="1" as="geometry"/>
                </mxCell>
                <mxCell id="UGwLT5LjvOKNq53BJIgy-23" value="no" style="edgeLabel;html=1;align=center;verticalAlign=middle;resizable=0;points=[];rounded=0;" parent="UGwLT5LjvOKNq53BJIgy-22" vertex="1" connectable="0">
                    <mxGeometry x="-0.5" y="1" relative="1" as="geometry">
                        <mxPoint as="offset"/>
                    </mxGeometry>
                </mxCell>
                <mxCell id="UGwLT5LjvOKNq53BJIgy-25" value="" style="edgeStyle=orthogonalEdgeStyle;rounded=0;orthogonalLoop=1;jettySize=auto;html=1;" parent="WIyWlLk6GJQsqaUBKTNV-1" source="UGwLT5LjvOKNq53BJIgy-18" target="UGwLT5LjvOKNq53BJIgy-24" edge="1">
                    <mxGeometry relative="1" as="geometry"/>
                </mxCell>
                <mxCell id="UGwLT5LjvOKNq53BJIgy-26" value="yes" style="edgeLabel;html=1;align=center;verticalAlign=middle;resizable=0;points=[];rounded=0;" parent="UGwLT5LjvOKNq53BJIgy-25" vertex="1" connectable="0">
                    <mxGeometry x="-0.4667" y="-1" relative="1" as="geometry">
                        <mxPoint as="offset"/>
                    </mxGeometry>
                </mxCell>
                <mxCell id="UGwLT5LjvOKNq53BJIgy-18" value="is&lt;div&gt;email&lt;/div&gt;&lt;div&gt;already&lt;/div&gt;&lt;div&gt;exist?&lt;/div&gt;" style="rhombus;whiteSpace=wrap;html=1;rounded=0;" parent="WIyWlLk6GJQsqaUBKTNV-1" vertex="1">
                    <mxGeometry x="180" y="390" width="80" height="80" as="geometry"/>
                </mxCell>
                <mxCell id="UGwLT5LjvOKNq53BJIgy-21" value="Display popup?&lt;div&gt;&quot;Email already exist. Do you want to go to Login Page?&quot;&lt;/div&gt;" style="whiteSpace=wrap;html=1;rounded=0;" parent="WIyWlLk6GJQsqaUBKTNV-1" vertex="1">
                    <mxGeometry x="320" y="400" width="120" height="60" as="geometry"/>
                </mxCell>
                <mxCell id="UGwLT5LjvOKNq53BJIgy-28" value="" style="edgeStyle=orthogonalEdgeStyle;rounded=0;orthogonalLoop=1;jettySize=auto;html=1;" parent="WIyWlLk6GJQsqaUBKTNV-1" source="UGwLT5LjvOKNq53BJIgy-24" target="UGwLT5LjvOKNq53BJIgy-27" edge="1">
                    <mxGeometry relative="1" as="geometry"/>
                </mxCell>
                <mxCell id="UGwLT5LjvOKNq53BJIgy-24" value="Display message&lt;div&gt;&quot;Otp sent to your email please verify&quot;&lt;/div&gt;" style="whiteSpace=wrap;html=1;rounded=0;" parent="WIyWlLk6GJQsqaUBKTNV-1" vertex="1">
                    <mxGeometry x="160" y="510" width="120" height="60" as="geometry"/>
                </mxCell>
                <mxCell id="UGwLT5LjvOKNq53BJIgy-30" value="" style="edgeStyle=orthogonalEdgeStyle;rounded=0;orthogonalLoop=1;jettySize=auto;html=1;" parent="WIyWlLk6GJQsqaUBKTNV-1" source="UGwLT5LjvOKNq53BJIgy-27" target="UGwLT5LjvOKNq53BJIgy-29" edge="1">
                    <mxGeometry relative="1" as="geometry"/>
                </mxCell>
                <mxCell id="UGwLT5LjvOKNq53BJIgy-27" value="enter 6 digit otp" style="whiteSpace=wrap;html=1;rounded=0;" parent="WIyWlLk6GJQsqaUBKTNV-1" vertex="1">
                    <mxGeometry x="160" y="600" width="120" height="60" as="geometry"/>
                </mxCell>
                <mxCell id="UGwLT5LjvOKNq53BJIgy-32" value="" style="edgeStyle=orthogonalEdgeStyle;rounded=0;orthogonalLoop=1;jettySize=auto;html=1;" parent="WIyWlLk6GJQsqaUBKTNV-1" source="UGwLT5LjvOKNq53BJIgy-29" target="UGwLT5LjvOKNq53BJIgy-31" edge="1">
                    <mxGeometry relative="1" as="geometry"/>
                </mxCell>
                <mxCell id="UGwLT5LjvOKNq53BJIgy-33" value="no" style="edgeLabel;html=1;align=center;verticalAlign=middle;resizable=0;points=[];rounded=0;" parent="UGwLT5LjvOKNq53BJIgy-32" vertex="1" connectable="0">
                    <mxGeometry x="-0.2" y="1" relative="1" as="geometry">
                        <mxPoint as="offset"/>
                    </mxGeometry>
                </mxCell>
                <mxCell id="UGwLT5LjvOKNq53BJIgy-35" value="" style="edgeStyle=orthogonalEdgeStyle;rounded=0;orthogonalLoop=1;jettySize=auto;html=1;" parent="WIyWlLk6GJQsqaUBKTNV-1" source="UGwLT5LjvOKNq53BJIgy-29" edge="1">
                    <mxGeometry relative="1" as="geometry">
                        <mxPoint x="220" y="810" as="targetPoint"/>
                    </mxGeometry>
                </mxCell>
                <mxCell id="UGwLT5LjvOKNq53BJIgy-36" value="yes" style="edgeLabel;html=1;align=center;verticalAlign=middle;resizable=0;points=[];rounded=0;" parent="UGwLT5LjvOKNq53BJIgy-35" vertex="1" connectable="0">
                    <mxGeometry x="-0.325" y="1" relative="1" as="geometry">
                        <mxPoint as="offset"/>
                    </mxGeometry>
                </mxCell>
                <mxCell id="UGwLT5LjvOKNq53BJIgy-29" value="is&lt;div&gt;otp&lt;/div&gt;&lt;div&gt;entered?&lt;/div&gt;" style="rhombus;whiteSpace=wrap;html=1;rounded=0;" parent="WIyWlLk6GJQsqaUBKTNV-1" vertex="1">
                    <mxGeometry x="180" y="690" width="80" height="80" as="geometry"/>
                </mxCell>
                <mxCell id="UGwLT5LjvOKNq53BJIgy-31" value="Verify button is disabled" style="whiteSpace=wrap;html=1;rounded=0;" parent="WIyWlLk6GJQsqaUBKTNV-1" vertex="1">
                    <mxGeometry x="320" y="700" width="120" height="60" as="geometry"/>
                </mxCell>
                <mxCell id="UGwLT5LjvOKNq53BJIgy-39" value="" style="edgeStyle=orthogonalEdgeStyle;rounded=0;orthogonalLoop=1;jettySize=auto;html=1;" parent="WIyWlLk6GJQsqaUBKTNV-1" source="UGwLT5LjvOKNq53BJIgy-37" target="UGwLT5LjvOKNq53BJIgy-38" edge="1">
                    <mxGeometry relative="1" as="geometry"/>
                </mxCell>
                <mxCell id="UGwLT5LjvOKNq53BJIgy-37" value="click on verify" style="whiteSpace=wrap;html=1;rounded=0;" parent="WIyWlLk6GJQsqaUBKTNV-1" vertex="1">
                    <mxGeometry x="160" y="810" width="120" height="60" as="geometry"/>
                </mxCell>
                <mxCell id="UGwLT5LjvOKNq53BJIgy-41" value="" style="edgeStyle=orthogonalEdgeStyle;rounded=0;orthogonalLoop=1;jettySize=auto;html=1;" parent="WIyWlLk6GJQsqaUBKTNV-1" source="UGwLT5LjvOKNq53BJIgy-38" target="UGwLT5LjvOKNq53BJIgy-40" edge="1">
                    <mxGeometry relative="1" as="geometry"/>
                </mxCell>
                <mxCell id="UGwLT5LjvOKNq53BJIgy-42" value="no" style="edgeLabel;html=1;align=center;verticalAlign=middle;resizable=0;points=[];rounded=0;" parent="UGwLT5LjvOKNq53BJIgy-41" vertex="1" connectable="0">
                    <mxGeometry x="-0.2" y="2" relative="1" as="geometry">
                        <mxPoint as="offset"/>
                    </mxGeometry>
                </mxCell>
                <mxCell id="UGwLT5LjvOKNq53BJIgy-44" value="" style="edgeStyle=orthogonalEdgeStyle;rounded=0;orthogonalLoop=1;jettySize=auto;html=1;" parent="WIyWlLk6GJQsqaUBKTNV-1" source="UGwLT5LjvOKNq53BJIgy-38" target="UGwLT5LjvOKNq53BJIgy-43" edge="1">
                    <mxGeometry relative="1" as="geometry"/>
                </mxCell>
                <mxCell id="UGwLT5LjvOKNq53BJIgy-45" value="yes" style="edgeLabel;html=1;align=center;verticalAlign=middle;resizable=0;points=[];rounded=0;" parent="UGwLT5LjvOKNq53BJIgy-44" vertex="1" connectable="0">
                    <mxGeometry x="-0.4444" y="-1" relative="1" as="geometry">
                        <mxPoint as="offset"/>
                    </mxGeometry>
                </mxCell>
                <mxCell id="UGwLT5LjvOKNq53BJIgy-38" value="is otp valid?" style="rhombus;whiteSpace=wrap;html=1;rounded=0;" parent="WIyWlLk6GJQsqaUBKTNV-1" vertex="1">
                    <mxGeometry x="180" y="910" width="80" height="80" as="geometry"/>
                </mxCell>
                <mxCell id="UGwLT5LjvOKNq53BJIgy-40" value="Display error message&lt;div&gt;&quot;Invalid otp&quot;&lt;/div&gt;" style="whiteSpace=wrap;html=1;rounded=0;" parent="WIyWlLk6GJQsqaUBKTNV-1" vertex="1">
                    <mxGeometry x="320" y="920" width="120" height="60" as="geometry"/>
                </mxCell>
                <mxCell id="UGwLT5LjvOKNq53BJIgy-47" value="" style="edgeStyle=orthogonalEdgeStyle;rounded=0;orthogonalLoop=1;jettySize=auto;html=1;" parent="WIyWlLk6GJQsqaUBKTNV-1" source="UGwLT5LjvOKNq53BJIgy-43" target="UGwLT5LjvOKNq53BJIgy-46" edge="1">
                    <mxGeometry relative="1" as="geometry"/>
                </mxCell>
                <mxCell id="UGwLT5LjvOKNq53BJIgy-43" value="&lt;h3&gt;Step 2: Account Type Info&lt;/h3&gt;" style="whiteSpace=wrap;html=1;rounded=0;" parent="WIyWlLk6GJQsqaUBKTNV-1" vertex="1">
                    <mxGeometry x="103.75" y="1030" width="232.5" height="60" as="geometry"/>
                </mxCell>
                <mxCell id="UGwLT5LjvOKNq53BJIgy-49" value="" style="edgeStyle=orthogonalEdgeStyle;rounded=0;orthogonalLoop=1;jettySize=auto;html=1;" parent="WIyWlLk6GJQsqaUBKTNV-1" source="UGwLT5LjvOKNq53BJIgy-46" target="UGwLT5LjvOKNq53BJIgy-48" edge="1">
                    <mxGeometry relative="1" as="geometry"/>
                </mxCell>
                <mxCell id="UGwLT5LjvOKNq53BJIgy-46" value="select account type ( individual / institutional)" style="whiteSpace=wrap;html=1;rounded=0;" parent="WIyWlLk6GJQsqaUBKTNV-1" vertex="1">
                    <mxGeometry x="160" y="1120" width="120" height="60" as="geometry"/>
                </mxCell>
                <mxCell id="UGwLT5LjvOKNq53BJIgy-51" value="" style="edgeStyle=orthogonalEdgeStyle;rounded=0;orthogonalLoop=1;jettySize=auto;html=1;" parent="WIyWlLk6GJQsqaUBKTNV-1" source="UGwLT5LjvOKNq53BJIgy-48" target="UGwLT5LjvOKNq53BJIgy-50" edge="1">
                    <mxGeometry relative="1" as="geometry"/>
                </mxCell>
                <mxCell id="UGwLT5LjvOKNq53BJIgy-52" value="no" style="edgeLabel;html=1;align=center;verticalAlign=middle;resizable=0;points=[];rounded=0;" parent="UGwLT5LjvOKNq53BJIgy-51" vertex="1" connectable="0">
                    <mxGeometry x="-0.2667" y="3" relative="1" as="geometry">
                        <mxPoint as="offset"/>
                    </mxGeometry>
                </mxCell>
                <mxCell id="UGwLT5LjvOKNq53BJIgy-54" value="" style="edgeStyle=orthogonalEdgeStyle;rounded=0;orthogonalLoop=1;jettySize=auto;html=1;" parent="WIyWlLk6GJQsqaUBKTNV-1" source="UGwLT5LjvOKNq53BJIgy-48" target="UGwLT5LjvOKNq53BJIgy-53" edge="1">
                    <mxGeometry relative="1" as="geometry"/>
                </mxCell>
                <mxCell id="UGwLT5LjvOKNq53BJIgy-55" value="yes" style="edgeLabel;html=1;align=center;verticalAlign=middle;resizable=0;points=[];rounded=0;" parent="UGwLT5LjvOKNq53BJIgy-54" vertex="1" connectable="0">
                    <mxGeometry x="-0.6" relative="1" as="geometry">
                        <mxPoint as="offset"/>
                    </mxGeometry>
                </mxCell>
                <mxCell id="UGwLT5LjvOKNq53BJIgy-48" value="accountType&lt;div&gt;=&lt;/div&gt;&lt;div&gt;individual?&lt;/div&gt;" style="rhombus;whiteSpace=wrap;html=1;rounded=0;" parent="WIyWlLk6GJQsqaUBKTNV-1" vertex="1">
                    <mxGeometry x="160" y="1220" width="120" height="90" as="geometry"/>
                </mxCell>
                <mxCell id="UGwLT5LjvOKNq53BJIgy-57" value="" style="edgeStyle=orthogonalEdgeStyle;rounded=0;orthogonalLoop=1;jettySize=auto;html=1;" parent="WIyWlLk6GJQsqaUBKTNV-1" source="UGwLT5LjvOKNq53BJIgy-50" target="UGwLT5LjvOKNq53BJIgy-56" edge="1">
                    <mxGeometry relative="1" as="geometry"/>
                </mxCell>
                <mxCell id="UGwLT5LjvOKNq53BJIgy-58" value="yes" style="edgeLabel;html=1;align=center;verticalAlign=middle;resizable=0;points=[];rounded=0;" parent="UGwLT5LjvOKNq53BJIgy-57" vertex="1" connectable="0">
                    <mxGeometry x="-0.5238" y="3" relative="1" as="geometry">
                        <mxPoint as="offset"/>
                    </mxGeometry>
                </mxCell>
                <mxCell id="UGwLT5LjvOKNq53BJIgy-50" value="accountType&lt;div&gt;=&lt;/div&gt;&lt;div&gt;institutional?&lt;/div&gt;" style="rhombus;whiteSpace=wrap;html=1;rounded=0;" parent="WIyWlLk6GJQsqaUBKTNV-1" vertex="1">
                    <mxGeometry x="340" y="1212.5" width="110" height="105" as="geometry"/>
                </mxCell>
                <mxCell id="UGwLT5LjvOKNq53BJIgy-94" style="edgeStyle=orthogonalEdgeStyle;rounded=0;orthogonalLoop=1;jettySize=auto;html=1;entryX=0.5;entryY=0;entryDx=0;entryDy=0;" parent="WIyWlLk6GJQsqaUBKTNV-1" source="UGwLT5LjvOKNq53BJIgy-53" target="UGwLT5LjvOKNq53BJIgy-89" edge="1">
                    <mxGeometry relative="1" as="geometry"/>
                </mxCell>
                <mxCell id="UGwLT5LjvOKNq53BJIgy-53" value="enter&lt;br&gt;1. firstname&lt;div&gt;2. lastname&lt;/div&gt;&lt;div&gt;3. nickname&lt;/div&gt;" style="whiteSpace=wrap;html=1;rounded=0;" parent="WIyWlLk6GJQsqaUBKTNV-1" vertex="1">
                    <mxGeometry x="160" y="1350" width="120" height="60" as="geometry"/>
                </mxCell>
                <mxCell id="UGwLT5LjvOKNq53BJIgy-60" value="" style="edgeStyle=orthogonalEdgeStyle;rounded=0;orthogonalLoop=1;jettySize=auto;html=1;" parent="WIyWlLk6GJQsqaUBKTNV-1" source="UGwLT5LjvOKNq53BJIgy-56" target="UGwLT5LjvOKNq53BJIgy-59" edge="1">
                    <mxGeometry relative="1" as="geometry"/>
                </mxCell>
                <mxCell id="UGwLT5LjvOKNq53BJIgy-56" value="1. select institution type&lt;div&gt;(Business / NGO)&lt;/div&gt;" style="whiteSpace=wrap;html=1;rounded=0;" parent="WIyWlLk6GJQsqaUBKTNV-1" vertex="1">
                    <mxGeometry x="335" y="1350" width="120" height="60" as="geometry"/>
                </mxCell>
                <mxCell id="UGwLT5LjvOKNq53BJIgy-62" style="edgeStyle=orthogonalEdgeStyle;rounded=0;orthogonalLoop=1;jettySize=auto;html=1;" parent="WIyWlLk6GJQsqaUBKTNV-1" source="UGwLT5LjvOKNq53BJIgy-59" target="UGwLT5LjvOKNq53BJIgy-61" edge="1">
                    <mxGeometry relative="1" as="geometry"/>
                </mxCell>
                <mxCell id="UGwLT5LjvOKNq53BJIgy-63" value="no" style="edgeLabel;html=1;align=center;verticalAlign=middle;resizable=0;points=[];rounded=0;" parent="UGwLT5LjvOKNq53BJIgy-62" vertex="1" connectable="0">
                    <mxGeometry x="-0.024" y="1" relative="1" as="geometry">
                        <mxPoint as="offset"/>
                    </mxGeometry>
                </mxCell>
                <mxCell id="UGwLT5LjvOKNq53BJIgy-65" style="edgeStyle=orthogonalEdgeStyle;rounded=0;orthogonalLoop=1;jettySize=auto;html=1;entryX=0.5;entryY=0;entryDx=0;entryDy=0;" parent="WIyWlLk6GJQsqaUBKTNV-1" source="UGwLT5LjvOKNq53BJIgy-59" target="UGwLT5LjvOKNq53BJIgy-64" edge="1">
                    <mxGeometry relative="1" as="geometry"/>
                </mxCell>
                <mxCell id="UGwLT5LjvOKNq53BJIgy-68" value="yes" style="edgeLabel;html=1;align=center;verticalAlign=middle;resizable=0;points=[];rounded=0;" parent="UGwLT5LjvOKNq53BJIgy-65" vertex="1" connectable="0">
                    <mxGeometry x="-0.3" y="2" relative="1" as="geometry">
                        <mxPoint as="offset"/>
                    </mxGeometry>
                </mxCell>
                <mxCell id="UGwLT5LjvOKNq53BJIgy-59" value="institution type&lt;div&gt;=&lt;/div&gt;&lt;div&gt;Business&lt;/div&gt;" style="rhombus;whiteSpace=wrap;html=1;rounded=0;" parent="WIyWlLk6GJQsqaUBKTNV-1" vertex="1">
                    <mxGeometry x="332.5" y="1440" width="125" height="100" as="geometry"/>
                </mxCell>
                <mxCell id="UGwLT5LjvOKNq53BJIgy-61" value="institution type&lt;div&gt;=&lt;/div&gt;&lt;div&gt;NGO&lt;/div&gt;" style="rhombus;whiteSpace=wrap;html=1;rounded=0;" parent="WIyWlLk6GJQsqaUBKTNV-1" vertex="1">
                    <mxGeometry x="520" y="1440" width="125" height="100" as="geometry"/>
                </mxCell>
                <mxCell id="UGwLT5LjvOKNq53BJIgy-72" style="edgeStyle=orthogonalEdgeStyle;rounded=0;orthogonalLoop=1;jettySize=auto;html=1;entryX=0.5;entryY=0;entryDx=0;entryDy=0;" parent="WIyWlLk6GJQsqaUBKTNV-1" source="UGwLT5LjvOKNq53BJIgy-64" target="UGwLT5LjvOKNq53BJIgy-75" edge="1">
                    <mxGeometry relative="1" as="geometry">
                        <mxPoint x="380" y="1770" as="targetPoint"/>
                        <Array as="points">
                            <mxPoint x="380" y="1690"/>
                            <mxPoint x="380" y="1690"/>
                        </Array>
                    </mxGeometry>
                </mxCell>
                <mxCell id="UGwLT5LjvOKNq53BJIgy-64" value="enter&lt;br&gt;1. businessName(organization)&lt;div&gt;2. roleInOrganization&lt;/div&gt;" style="whiteSpace=wrap;html=1;rounded=0;" parent="WIyWlLk6GJQsqaUBKTNV-1" vertex="1">
                    <mxGeometry x="305" y="1580" width="180" height="80" as="geometry"/>
                </mxCell>
                <mxCell id="UGwLT5LjvOKNq53BJIgy-77" style="edgeStyle=orthogonalEdgeStyle;rounded=0;orthogonalLoop=1;jettySize=auto;html=1;entryX=1;entryY=0.5;entryDx=0;entryDy=0;" parent="WIyWlLk6GJQsqaUBKTNV-1" source="UGwLT5LjvOKNq53BJIgy-66" target="UGwLT5LjvOKNq53BJIgy-75" edge="1">
                    <mxGeometry relative="1" as="geometry">
                        <Array as="points">
                            <mxPoint x="600" y="1715"/>
                        </Array>
                    </mxGeometry>
                </mxCell>
                <mxCell id="UGwLT5LjvOKNq53BJIgy-66" value="enter&lt;br&gt;1. NGO Name(organization)&lt;div&gt;2. roleInOrganization&lt;/div&gt;" style="whiteSpace=wrap;html=1;rounded=0;" parent="WIyWlLk6GJQsqaUBKTNV-1" vertex="1">
                    <mxGeometry x="510" y="1580" width="180" height="80" as="geometry"/>
                </mxCell>
                <mxCell id="UGwLT5LjvOKNq53BJIgy-67" style="edgeStyle=orthogonalEdgeStyle;rounded=0;orthogonalLoop=1;jettySize=auto;html=1;entryX=0.4;entryY=0.038;entryDx=0;entryDy=0;entryPerimeter=0;" parent="WIyWlLk6GJQsqaUBKTNV-1" source="UGwLT5LjvOKNq53BJIgy-61" target="UGwLT5LjvOKNq53BJIgy-66" edge="1">
                    <mxGeometry relative="1" as="geometry"/>
                </mxCell>
                <mxCell id="UGwLT5LjvOKNq53BJIgy-69" value="yes" style="edgeLabel;html=1;align=center;verticalAlign=middle;resizable=0;points=[];rounded=0;" parent="UGwLT5LjvOKNq53BJIgy-67" vertex="1" connectable="0">
                    <mxGeometry x="-0.2191" y="2" relative="1" as="geometry">
                        <mxPoint as="offset"/>
                    </mxGeometry>
                </mxCell>
                <mxCell id="UGwLT5LjvOKNq53BJIgy-79" value="" style="edgeStyle=orthogonalEdgeStyle;rounded=0;orthogonalLoop=1;jettySize=auto;html=1;" parent="WIyWlLk6GJQsqaUBKTNV-1" source="UGwLT5LjvOKNq53BJIgy-75" target="UGwLT5LjvOKNq53BJIgy-78" edge="1">
                    <mxGeometry relative="1" as="geometry"/>
                </mxCell>
                <mxCell id="UGwLT5LjvOKNq53BJIgy-75" value="" style="ellipse;whiteSpace=wrap;html=1;aspect=fixed;rounded=0;" parent="WIyWlLk6GJQsqaUBKTNV-1" vertex="1">
                    <mxGeometry x="365" y="1700" width="30" height="30" as="geometry"/>
                </mxCell>
                <mxCell id="UGwLT5LjvOKNq53BJIgy-81" style="edgeStyle=orthogonalEdgeStyle;rounded=0;orthogonalLoop=1;jettySize=auto;html=1;entryX=0.5;entryY=0;entryDx=0;entryDy=0;" parent="WIyWlLk6GJQsqaUBKTNV-1" source="UGwLT5LjvOKNq53BJIgy-78" target="UGwLT5LjvOKNq53BJIgy-80" edge="1">
                    <mxGeometry relative="1" as="geometry"/>
                </mxCell>
                <mxCell id="UGwLT5LjvOKNq53BJIgy-78" value="click on GO button" style="whiteSpace=wrap;html=1;rounded=0;" parent="WIyWlLk6GJQsqaUBKTNV-1" vertex="1">
                    <mxGeometry x="320" y="1754" width="120" height="60" as="geometry"/>
                </mxCell>
                <mxCell id="UGwLT5LjvOKNq53BJIgy-80" value="&lt;h3&gt;Step 3: Name Info&lt;/h3&gt;" style="whiteSpace=wrap;html=1;rounded=0;" parent="WIyWlLk6GJQsqaUBKTNV-1" vertex="1">
                    <mxGeometry x="263.75" y="1850" width="232.5" height="60" as="geometry"/>
                </mxCell>
                <mxCell id="UGwLT5LjvOKNq53BJIgy-85" style="edgeStyle=orthogonalEdgeStyle;rounded=0;orthogonalLoop=1;jettySize=auto;html=1;entryX=0.5;entryY=0;entryDx=0;entryDy=0;" parent="WIyWlLk6GJQsqaUBKTNV-1" source="UGwLT5LjvOKNq53BJIgy-82" target="UGwLT5LjvOKNq53BJIgy-84" edge="1">
                    <mxGeometry relative="1" as="geometry"/>
                </mxCell>
                <mxCell id="UGwLT5LjvOKNq53BJIgy-82" value="enter&lt;br&gt;1. firstname&lt;div&gt;2. lastname&lt;/div&gt;" style="whiteSpace=wrap;html=1;rounded=0;" parent="WIyWlLk6GJQsqaUBKTNV-1" vertex="1">
                    <mxGeometry x="332.5" y="1950" width="120" height="60" as="geometry"/>
                </mxCell>
                <mxCell id="UGwLT5LjvOKNq53BJIgy-83" style="edgeStyle=orthogonalEdgeStyle;rounded=0;orthogonalLoop=1;jettySize=auto;html=1;entryX=0.396;entryY=0.05;entryDx=0;entryDy=0;entryPerimeter=0;" parent="WIyWlLk6GJQsqaUBKTNV-1" source="UGwLT5LjvOKNq53BJIgy-80" target="UGwLT5LjvOKNq53BJIgy-82" edge="1">
                    <mxGeometry relative="1" as="geometry"/>
                </mxCell>
                <mxCell id="UGwLT5LjvOKNq53BJIgy-88" style="edgeStyle=orthogonalEdgeStyle;rounded=0;orthogonalLoop=1;jettySize=auto;html=1;entryX=1;entryY=0.5;entryDx=0;entryDy=0;" parent="WIyWlLk6GJQsqaUBKTNV-1" source="UGwLT5LjvOKNq53BJIgy-84" target="UGwLT5LjvOKNq53BJIgy-86" edge="1">
                    <mxGeometry relative="1" as="geometry">
                        <Array as="points">
                            <mxPoint x="393" y="2155"/>
                        </Array>
                    </mxGeometry>
                </mxCell>
                <mxCell id="UGwLT5LjvOKNq53BJIgy-84" value="click on GO button" style="whiteSpace=wrap;html=1;rounded=0;" parent="WIyWlLk6GJQsqaUBKTNV-1" vertex="1">
                    <mxGeometry x="332.5" y="2040" width="120" height="60" as="geometry"/>
                </mxCell>
                <mxCell id="UGwLT5LjvOKNq53BJIgy-86" value="" style="ellipse;whiteSpace=wrap;html=1;aspect=fixed;rounded=0;" parent="WIyWlLk6GJQsqaUBKTNV-1" vertex="1">
                    <mxGeometry x="205" y="2140" width="30" height="30" as="geometry"/>
                </mxCell>
                <mxCell id="UGwLT5LjvOKNq53BJIgy-91" style="edgeStyle=orthogonalEdgeStyle;rounded=0;orthogonalLoop=1;jettySize=auto;html=1;entryX=0.5;entryY=0;entryDx=0;entryDy=0;" parent="WIyWlLk6GJQsqaUBKTNV-1" source="UGwLT5LjvOKNq53BJIgy-89" target="UGwLT5LjvOKNq53BJIgy-86" edge="1">
                    <mxGeometry relative="1" as="geometry"/>
                </mxCell>
                <mxCell id="UGwLT5LjvOKNq53BJIgy-89" value="click on GO button" style="whiteSpace=wrap;html=1;rounded=0;" parent="WIyWlLk6GJQsqaUBKTNV-1" vertex="1">
                    <mxGeometry x="160" y="1490" width="120" height="60" as="geometry"/>
                </mxCell>
                <mxCell id="UGwLT5LjvOKNq53BJIgy-96" value="" style="edgeStyle=orthogonalEdgeStyle;rounded=0;orthogonalLoop=1;jettySize=auto;html=1;" parent="WIyWlLk6GJQsqaUBKTNV-1" source="UGwLT5LjvOKNq53BJIgy-92" target="UGwLT5LjvOKNq53BJIgy-95" edge="1">
                    <mxGeometry relative="1" as="geometry"/>
                </mxCell>
                <mxCell id="UGwLT5LjvOKNq53BJIgy-92" value="&lt;h3&gt;Step 4: Referral Info&lt;/h3&gt;" style="whiteSpace=wrap;html=1;rounded=0;" parent="WIyWlLk6GJQsqaUBKTNV-1" vertex="1">
                    <mxGeometry x="117.5" y="2200" width="232.5" height="60" as="geometry"/>
                </mxCell>
                <mxCell id="UGwLT5LjvOKNq53BJIgy-93" style="edgeStyle=orthogonalEdgeStyle;rounded=0;orthogonalLoop=1;jettySize=auto;html=1;entryX=0.441;entryY=0.05;entryDx=0;entryDy=0;entryPerimeter=0;" parent="WIyWlLk6GJQsqaUBKTNV-1" source="UGwLT5LjvOKNq53BJIgy-86" target="UGwLT5LjvOKNq53BJIgy-92" edge="1">
                    <mxGeometry relative="1" as="geometry"/>
                </mxCell>
                <mxCell id="UGwLT5LjvOKNq53BJIgy-98" value="" style="edgeStyle=orthogonalEdgeStyle;rounded=0;orthogonalLoop=1;jettySize=auto;html=1;" parent="WIyWlLk6GJQsqaUBKTNV-1" source="UGwLT5LjvOKNq53BJIgy-95" target="UGwLT5LjvOKNq53BJIgy-97" edge="1">
                    <mxGeometry relative="1" as="geometry"/>
                </mxCell>
                <mxCell id="UGwLT5LjvOKNq53BJIgy-95" value="select yes / no for referred by someone?" style="whiteSpace=wrap;html=1;rounded=0;" parent="WIyWlLk6GJQsqaUBKTNV-1" vertex="1">
                    <mxGeometry x="173.75" y="2290" width="120" height="60" as="geometry"/>
                </mxCell>
                <mxCell id="UGwLT5LjvOKNq53BJIgy-101" value="" style="edgeStyle=orthogonalEdgeStyle;rounded=0;orthogonalLoop=1;jettySize=auto;html=1;" parent="WIyWlLk6GJQsqaUBKTNV-1" source="UGwLT5LjvOKNq53BJIgy-97" target="UGwLT5LjvOKNq53BJIgy-100" edge="1">
                    <mxGeometry relative="1" as="geometry"/>
                </mxCell>
                <mxCell id="UGwLT5LjvOKNq53BJIgy-102" value="no" style="edgeLabel;html=1;align=center;verticalAlign=middle;resizable=0;points=[];rounded=0;" parent="UGwLT5LjvOKNq53BJIgy-101" vertex="1" connectable="0">
                    <mxGeometry x="-0.0583" y="-2" relative="1" as="geometry">
                        <mxPoint as="offset"/>
                    </mxGeometry>
                </mxCell>
                <mxCell id="UGwLT5LjvOKNq53BJIgy-104" value="" style="edgeStyle=orthogonalEdgeStyle;rounded=0;orthogonalLoop=1;jettySize=auto;html=1;" parent="WIyWlLk6GJQsqaUBKTNV-1" source="UGwLT5LjvOKNq53BJIgy-97" target="UGwLT5LjvOKNq53BJIgy-103" edge="1">
                    <mxGeometry relative="1" as="geometry"/>
                </mxCell>
                <mxCell id="UGwLT5LjvOKNq53BJIgy-105" value="yes" style="edgeLabel;html=1;align=center;verticalAlign=middle;resizable=0;points=[];rounded=0;" parent="UGwLT5LjvOKNq53BJIgy-104" vertex="1" connectable="0">
                    <mxGeometry x="0.2008" y="1" relative="1" as="geometry">
                        <mxPoint as="offset"/>
                    </mxGeometry>
                </mxCell>
                <mxCell id="UGwLT5LjvOKNq53BJIgy-97" value="selected&lt;div&gt;yes?&lt;/div&gt;" style="rhombus;whiteSpace=wrap;html=1;rounded=0;" parent="WIyWlLk6GJQsqaUBKTNV-1" vertex="1">
                    <mxGeometry x="193.75" y="2420" width="80" height="80" as="geometry"/>
                </mxCell>
                <mxCell id="UGwLT5LjvOKNq53BJIgy-127" style="edgeStyle=orthogonalEdgeStyle;rounded=0;orthogonalLoop=1;jettySize=auto;html=1;entryX=1;entryY=0.5;entryDx=0;entryDy=0;" parent="WIyWlLk6GJQsqaUBKTNV-1" source="UGwLT5LjvOKNq53BJIgy-100" target="UGwLT5LjvOKNq53BJIgy-125" edge="1">
                    <mxGeometry relative="1" as="geometry">
                        <Array as="points">
                            <mxPoint x="550" y="2460"/>
                            <mxPoint x="550" y="3150"/>
                        </Array>
                    </mxGeometry>
                </mxCell>
                <mxCell id="UGwLT5LjvOKNq53BJIgy-100" value="click on Continue &amp;amp; Go" style="whiteSpace=wrap;html=1;rounded=0;" parent="WIyWlLk6GJQsqaUBKTNV-1" vertex="1">
                    <mxGeometry x="333.75" y="2430" width="120" height="60" as="geometry"/>
                </mxCell>
                <mxCell id="UGwLT5LjvOKNq53BJIgy-107" value="" style="edgeStyle=orthogonalEdgeStyle;rounded=0;orthogonalLoop=1;jettySize=auto;html=1;" parent="WIyWlLk6GJQsqaUBKTNV-1" source="UGwLT5LjvOKNq53BJIgy-103" target="UGwLT5LjvOKNq53BJIgy-106" edge="1">
                    <mxGeometry relative="1" as="geometry"/>
                </mxCell>
                <mxCell id="UGwLT5LjvOKNq53BJIgy-103" value="enter email" style="whiteSpace=wrap;html=1;rounded=0;" parent="WIyWlLk6GJQsqaUBKTNV-1" vertex="1">
                    <mxGeometry x="173.75" y="2530" width="120" height="30" as="geometry"/>
                </mxCell>
                <mxCell id="UGwLT5LjvOKNq53BJIgy-109" value="" style="edgeStyle=orthogonalEdgeStyle;rounded=0;orthogonalLoop=1;jettySize=auto;html=1;" parent="WIyWlLk6GJQsqaUBKTNV-1" source="UGwLT5LjvOKNq53BJIgy-106" target="UGwLT5LjvOKNq53BJIgy-108" edge="1">
                    <mxGeometry relative="1" as="geometry"/>
                </mxCell>
                <mxCell id="UGwLT5LjvOKNq53BJIgy-110" value="no" style="edgeLabel;html=1;align=center;verticalAlign=middle;resizable=0;points=[];rounded=0;" parent="UGwLT5LjvOKNq53BJIgy-109" vertex="1" connectable="0">
                    <mxGeometry x="-0.225" y="1" relative="1" as="geometry">
                        <mxPoint as="offset"/>
                    </mxGeometry>
                </mxCell>
                <mxCell id="UGwLT5LjvOKNq53BJIgy-112" value="" style="edgeStyle=orthogonalEdgeStyle;rounded=0;orthogonalLoop=1;jettySize=auto;html=1;" parent="WIyWlLk6GJQsqaUBKTNV-1" source="UGwLT5LjvOKNq53BJIgy-106" target="UGwLT5LjvOKNq53BJIgy-111" edge="1">
                    <mxGeometry relative="1" as="geometry"/>
                </mxCell>
                <mxCell id="UGwLT5LjvOKNq53BJIgy-113" value="yes" style="edgeLabel;html=1;align=center;verticalAlign=middle;resizable=0;points=[];rounded=0;" parent="UGwLT5LjvOKNq53BJIgy-112" vertex="1" connectable="0">
                    <mxGeometry x="-0.48" relative="1" as="geometry">
                        <mxPoint as="offset"/>
                    </mxGeometry>
                </mxCell>
                <mxCell id="UGwLT5LjvOKNq53BJIgy-106" value="is&lt;div&gt;email&lt;/div&gt;&lt;div&gt;same&lt;/div&gt;&lt;div&gt;as&lt;/div&gt;&lt;div&gt;your's&lt;/div&gt;" style="rhombus;whiteSpace=wrap;html=1;rounded=0;" parent="WIyWlLk6GJQsqaUBKTNV-1" vertex="1">
                    <mxGeometry x="193.75" y="2590" width="80" height="100" as="geometry"/>
                </mxCell>
                <mxCell id="UGwLT5LjvOKNq53BJIgy-108" value="erase email &amp;amp; Display error message&lt;div&gt;&quot;Referrer email should not be same as your's&quot;&lt;/div&gt;" style="whiteSpace=wrap;html=1;rounded=0;" parent="WIyWlLk6GJQsqaUBKTNV-1" vertex="1">
                    <mxGeometry x="340" y="2600" width="120" height="80" as="geometry"/>
                </mxCell>
                <mxCell id="UGwLT5LjvOKNq53BJIgy-117" value="" style="edgeStyle=orthogonalEdgeStyle;rounded=0;orthogonalLoop=1;jettySize=auto;html=1;" parent="WIyWlLk6GJQsqaUBKTNV-1" source="UGwLT5LjvOKNq53BJIgy-111" target="UGwLT5LjvOKNq53BJIgy-116" edge="1">
                    <mxGeometry relative="1" as="geometry"/>
                </mxCell>
                <mxCell id="UGwLT5LjvOKNq53BJIgy-111" value="click on Verify button" style="whiteSpace=wrap;html=1;rounded=0;" parent="WIyWlLk6GJQsqaUBKTNV-1" vertex="1">
                    <mxGeometry x="173.75" y="2720" width="120" height="60" as="geometry"/>
                </mxCell>
                <mxCell id="UGwLT5LjvOKNq53BJIgy-124" value="" style="edgeStyle=orthogonalEdgeStyle;rounded=0;orthogonalLoop=1;jettySize=auto;html=1;" parent="WIyWlLk6GJQsqaUBKTNV-1" source="UGwLT5LjvOKNq53BJIgy-114" target="UGwLT5LjvOKNq53BJIgy-123" edge="1">
                    <mxGeometry relative="1" as="geometry"/>
                </mxCell>
                <mxCell id="UGwLT5LjvOKNq53BJIgy-114" value="referrer firstname &amp;amp; lastname will be displayed" style="whiteSpace=wrap;html=1;rounded=0;" parent="WIyWlLk6GJQsqaUBKTNV-1" vertex="1">
                    <mxGeometry x="173.75" y="2923" width="120" height="60" as="geometry"/>
                </mxCell>
                <mxCell id="UGwLT5LjvOKNq53BJIgy-118" style="edgeStyle=orthogonalEdgeStyle;rounded=0;orthogonalLoop=1;jettySize=auto;html=1;entryX=0.5;entryY=0;entryDx=0;entryDy=0;" parent="WIyWlLk6GJQsqaUBKTNV-1" source="UGwLT5LjvOKNq53BJIgy-116" target="UGwLT5LjvOKNq53BJIgy-114" edge="1">
                    <mxGeometry relative="1" as="geometry"/>
                </mxCell>
                <mxCell id="UGwLT5LjvOKNq53BJIgy-119" value="yes" style="edgeLabel;html=1;align=center;verticalAlign=middle;resizable=0;points=[];rounded=0;" parent="UGwLT5LjvOKNq53BJIgy-118" vertex="1" connectable="0">
                    <mxGeometry x="-0.6153" y="-1" relative="1" as="geometry">
                        <mxPoint as="offset"/>
                    </mxGeometry>
                </mxCell>
                <mxCell id="UGwLT5LjvOKNq53BJIgy-121" value="" style="edgeStyle=orthogonalEdgeStyle;rounded=0;orthogonalLoop=1;jettySize=auto;html=1;" parent="WIyWlLk6GJQsqaUBKTNV-1" source="UGwLT5LjvOKNq53BJIgy-116" target="UGwLT5LjvOKNq53BJIgy-120" edge="1">
                    <mxGeometry relative="1" as="geometry"/>
                </mxCell>
                <mxCell id="UGwLT5LjvOKNq53BJIgy-122" value="no" style="edgeLabel;html=1;align=center;verticalAlign=middle;resizable=0;points=[];rounded=0;" parent="UGwLT5LjvOKNq53BJIgy-121" vertex="1" connectable="0">
                    <mxGeometry x="-0.125" y="1" relative="1" as="geometry">
                        <mxPoint as="offset"/>
                    </mxGeometry>
                </mxCell>
                <mxCell id="UGwLT5LjvOKNq53BJIgy-116" value="is&lt;div&gt;referrer&lt;/div&gt;&lt;div&gt;found?&lt;/div&gt;" style="rhombus;whiteSpace=wrap;html=1;rounded=0;" parent="WIyWlLk6GJQsqaUBKTNV-1" vertex="1">
                    <mxGeometry x="193.75" y="2810" width="80" height="80" as="geometry"/>
                </mxCell>
                <mxCell id="UGwLT5LjvOKNq53BJIgy-120" value="Display error message&lt;div&gt;&quot;Referrer not found&quot;&lt;/div&gt;" style="whiteSpace=wrap;html=1;rounded=0;" parent="WIyWlLk6GJQsqaUBKTNV-1" vertex="1">
                    <mxGeometry x="333.75" y="2820" width="120" height="60" as="geometry"/>
                </mxCell>
                <mxCell id="UGwLT5LjvOKNq53BJIgy-126" style="edgeStyle=orthogonalEdgeStyle;rounded=0;orthogonalLoop=1;jettySize=auto;html=1;" parent="WIyWlLk6GJQsqaUBKTNV-1" source="UGwLT5LjvOKNq53BJIgy-123" target="UGwLT5LjvOKNq53BJIgy-125" edge="1">
                    <mxGeometry relative="1" as="geometry"/>
                </mxCell>
                <mxCell id="UGwLT5LjvOKNq53BJIgy-123" value="click on Confirm &amp;amp; Go Button" style="whiteSpace=wrap;html=1;rounded=0;" parent="WIyWlLk6GJQsqaUBKTNV-1" vertex="1">
                    <mxGeometry x="173.75" y="3000" width="120" height="60" as="geometry"/>
                </mxCell>
                <mxCell id="UGwLT5LjvOKNq53BJIgy-129" value="" style="edgeStyle=orthogonalEdgeStyle;rounded=0;orthogonalLoop=1;jettySize=auto;html=1;" parent="WIyWlLk6GJQsqaUBKTNV-1" source="UGwLT5LjvOKNq53BJIgy-125" target="UGwLT5LjvOKNq53BJIgy-128" edge="1">
                    <mxGeometry relative="1" as="geometry"/>
                </mxCell>
                <mxCell id="UGwLT5LjvOKNq53BJIgy-125" value="&lt;h3&gt;Step 5: Country Info&lt;/h3&gt;" style="whiteSpace=wrap;html=1;rounded=0;" parent="WIyWlLk6GJQsqaUBKTNV-1" vertex="1">
                    <mxGeometry x="173.75" y="3120" width="232.5" height="60" as="geometry"/>
                </mxCell>
                <mxCell id="UGwLT5LjvOKNq53BJIgy-131" style="edgeStyle=orthogonalEdgeStyle;rounded=0;orthogonalLoop=1;jettySize=auto;html=1;entryX=0.5;entryY=0;entryDx=0;entryDy=0;" parent="WIyWlLk6GJQsqaUBKTNV-1" source="UGwLT5LjvOKNq53BJIgy-128" target="UGwLT5LjvOKNq53BJIgy-130" edge="1">
                    <mxGeometry relative="1" as="geometry"/>
                </mxCell>
                <mxCell id="UGwLT5LjvOKNq53BJIgy-128" value="1. select country&lt;div&gt;2. select region&lt;/div&gt;&lt;div&gt;3. select pincode&lt;br&gt;4. select local postoffice&lt;/div&gt;" style="whiteSpace=wrap;html=1;rounded=0;" parent="WIyWlLk6GJQsqaUBKTNV-1" vertex="1">
                    <mxGeometry x="220" y="3210" width="140" height="60" as="geometry"/>
                </mxCell>
                <mxCell id="UGwLT5LjvOKNq53BJIgy-130" value="click on Go Button" style="whiteSpace=wrap;html=1;rounded=0;" parent="WIyWlLk6GJQsqaUBKTNV-1" vertex="1">
                    <mxGeometry x="230" y="3300" width="120" height="30" as="geometry"/>
                </mxCell>
                <mxCell id="UGwLT5LjvOKNq53BJIgy-135" style="edgeStyle=orthogonalEdgeStyle;rounded=0;orthogonalLoop=1;jettySize=auto;html=1;entryX=0.5;entryY=0;entryDx=0;entryDy=0;" parent="WIyWlLk6GJQsqaUBKTNV-1" source="UGwLT5LjvOKNq53BJIgy-132" target="UGwLT5LjvOKNq53BJIgy-134" edge="1">
                    <mxGeometry relative="1" as="geometry"/>
                </mxCell>
                <mxCell id="UGwLT5LjvOKNq53BJIgy-132" value="&lt;h3&gt;Step 6: Address Info&lt;/h3&gt;" style="whiteSpace=wrap;html=1;rounded=0;" parent="WIyWlLk6GJQsqaUBKTNV-1" vertex="1">
                    <mxGeometry x="181" y="3360" width="232.5" height="60" as="geometry"/>
                </mxCell>
                <mxCell id="UGwLT5LjvOKNq53BJIgy-133" style="edgeStyle=orthogonalEdgeStyle;rounded=0;orthogonalLoop=1;jettySize=auto;html=1;entryX=0.469;entryY=0;entryDx=0;entryDy=0;entryPerimeter=0;" parent="WIyWlLk6GJQsqaUBKTNV-1" source="UGwLT5LjvOKNq53BJIgy-130" target="UGwLT5LjvOKNq53BJIgy-132" edge="1">
                    <mxGeometry relative="1" as="geometry"/>
                </mxCell>
                <mxCell id="UGwLT5LjvOKNq53BJIgy-137" style="edgeStyle=orthogonalEdgeStyle;rounded=0;orthogonalLoop=1;jettySize=auto;html=1;entryX=0.5;entryY=0;entryDx=0;entryDy=0;" parent="WIyWlLk6GJQsqaUBKTNV-1" source="UGwLT5LjvOKNq53BJIgy-134" target="UGwLT5LjvOKNq53BJIgy-136" edge="1">
                    <mxGeometry relative="1" as="geometry"/>
                </mxCell>
                <mxCell id="UGwLT5LjvOKNq53BJIgy-134" value="1. enter street&lt;div&gt;2. enter colony&lt;/div&gt;&lt;div&gt;3. enter village&lt;/div&gt;" style="whiteSpace=wrap;html=1;rounded=0;" parent="WIyWlLk6GJQsqaUBKTNV-1" vertex="1">
                    <mxGeometry x="227.25" y="3447" width="140" height="60" as="geometry"/>
                </mxCell>
                <mxCell id="UGwLT5LjvOKNq53BJIgy-139" style="edgeStyle=orthogonalEdgeStyle;rounded=0;orthogonalLoop=1;jettySize=auto;html=1;entryX=0.5;entryY=0;entryDx=0;entryDy=0;" parent="WIyWlLk6GJQsqaUBKTNV-1" source="UGwLT5LjvOKNq53BJIgy-136" target="UGwLT5LjvOKNq53BJIgy-138" edge="1">
                    <mxGeometry relative="1" as="geometry"/>
                </mxCell>
                <mxCell id="UGwLT5LjvOKNq53BJIgy-136" value="click on Go Button" style="whiteSpace=wrap;html=1;rounded=0;" parent="WIyWlLk6GJQsqaUBKTNV-1" vertex="1">
                    <mxGeometry x="235" y="3530" width="120" height="30" as="geometry"/>
                </mxCell>
                <mxCell id="UGwLT5LjvOKNq53BJIgy-141" value="" style="edgeStyle=orthogonalEdgeStyle;rounded=0;orthogonalLoop=1;jettySize=auto;html=1;" parent="WIyWlLk6GJQsqaUBKTNV-1" source="UGwLT5LjvOKNq53BJIgy-138" target="UGwLT5LjvOKNq53BJIgy-140" edge="1">
                    <mxGeometry relative="1" as="geometry"/>
                </mxCell>
                <mxCell id="UGwLT5LjvOKNq53BJIgy-138" value="&lt;h3&gt;Step 7: Phone Info&lt;/h3&gt;" style="whiteSpace=wrap;html=1;rounded=0;" parent="WIyWlLk6GJQsqaUBKTNV-1" vertex="1">
                    <mxGeometry x="181" y="3590" width="232.5" height="60" as="geometry"/>
                </mxCell>
                <mxCell id="UGwLT5LjvOKNq53BJIgy-143" value="" style="edgeStyle=orthogonalEdgeStyle;rounded=0;orthogonalLoop=1;jettySize=auto;html=1;" parent="WIyWlLk6GJQsqaUBKTNV-1" source="UGwLT5LjvOKNq53BJIgy-140" target="UGwLT5LjvOKNq53BJIgy-142" edge="1">
                    <mxGeometry relative="1" as="geometry"/>
                </mxCell>
                <mxCell id="UGwLT5LjvOKNq53BJIgy-140" value="enter phone no." style="whiteSpace=wrap;html=1;rounded=0;" parent="WIyWlLk6GJQsqaUBKTNV-1" vertex="1">
                    <mxGeometry x="237.25" y="3680" width="120" height="60" as="geometry"/>
                </mxCell>
                <mxCell id="UGwLT5LjvOKNq53BJIgy-145" value="" style="edgeStyle=orthogonalEdgeStyle;rounded=0;orthogonalLoop=1;jettySize=auto;html=1;" parent="WIyWlLk6GJQsqaUBKTNV-1" source="UGwLT5LjvOKNq53BJIgy-142" target="UGwLT5LjvOKNq53BJIgy-144" edge="1">
                    <mxGeometry relative="1" as="geometry"/>
                </mxCell>
                <mxCell id="UGwLT5LjvOKNq53BJIgy-142" value="click on send otp" style="whiteSpace=wrap;html=1;rounded=0;" parent="WIyWlLk6GJQsqaUBKTNV-1" vertex="1">
                    <mxGeometry x="237.25" y="3760" width="120" height="60" as="geometry"/>
                </mxCell>
                <mxCell id="UGwLT5LjvOKNq53BJIgy-147" value="" style="edgeStyle=orthogonalEdgeStyle;rounded=0;orthogonalLoop=1;jettySize=auto;html=1;" parent="WIyWlLk6GJQsqaUBKTNV-1" source="UGwLT5LjvOKNq53BJIgy-144" target="UGwLT5LjvOKNq53BJIgy-146" edge="1">
                    <mxGeometry relative="1" as="geometry"/>
                </mxCell>
                <mxCell id="UGwLT5LjvOKNq53BJIgy-144" value="enter 6 digit otp" style="whiteSpace=wrap;html=1;rounded=0;" parent="WIyWlLk6GJQsqaUBKTNV-1" vertex="1">
                    <mxGeometry x="237.25" y="3850" width="120" height="60" as="geometry"/>
                </mxCell>
                <mxCell id="UGwLT5LjvOKNq53BJIgy-149" value="" style="edgeStyle=orthogonalEdgeStyle;rounded=0;orthogonalLoop=1;jettySize=auto;html=1;" parent="WIyWlLk6GJQsqaUBKTNV-1" source="UGwLT5LjvOKNq53BJIgy-146" target="UGwLT5LjvOKNq53BJIgy-148" edge="1">
                    <mxGeometry relative="1" as="geometry"/>
                </mxCell>
                <mxCell id="UGwLT5LjvOKNq53BJIgy-150" value="no" style="edgeLabel;html=1;align=center;verticalAlign=middle;resizable=0;points=[];rounded=0;" parent="UGwLT5LjvOKNq53BJIgy-149" vertex="1" connectable="0">
                    <mxGeometry x="-0.0083" y="-2" relative="1" as="geometry">
                        <mxPoint as="offset"/>
                    </mxGeometry>
                </mxCell>
                <mxCell id="UGwLT5LjvOKNq53BJIgy-152" value="" style="edgeStyle=orthogonalEdgeStyle;rounded=0;orthogonalLoop=1;jettySize=auto;html=1;" parent="WIyWlLk6GJQsqaUBKTNV-1" source="UGwLT5LjvOKNq53BJIgy-146" edge="1">
                    <mxGeometry relative="1" as="geometry">
                        <mxPoint x="297" y="4120" as="targetPoint"/>
                    </mxGeometry>
                </mxCell>
                <mxCell id="UGwLT5LjvOKNq53BJIgy-153" value="yes" style="edgeLabel;html=1;align=center;verticalAlign=middle;resizable=0;points=[];rounded=0;" parent="UGwLT5LjvOKNq53BJIgy-152" vertex="1" connectable="0">
                    <mxGeometry x="-0.5" relative="1" as="geometry">
                        <mxPoint as="offset"/>
                    </mxGeometry>
                </mxCell>
                <mxCell id="UGwLT5LjvOKNq53BJIgy-146" value="is&lt;div&gt;otp&lt;/div&gt;&lt;div&gt;entered?&lt;/div&gt;" style="rhombus;whiteSpace=wrap;html=1;rounded=0;" parent="WIyWlLk6GJQsqaUBKTNV-1" vertex="1">
                    <mxGeometry x="257.25" y="3980" width="80" height="80" as="geometry"/>
                </mxCell>
                <mxCell id="UGwLT5LjvOKNq53BJIgy-148" value="Verify button is disabled" style="whiteSpace=wrap;html=1;rounded=0;" parent="WIyWlLk6GJQsqaUBKTNV-1" vertex="1">
                    <mxGeometry x="397.25" y="3990" width="120" height="60" as="geometry"/>
                </mxCell>
                <mxCell id="UGwLT5LjvOKNq53BJIgy-156" value="" style="edgeStyle=orthogonalEdgeStyle;rounded=0;orthogonalLoop=1;jettySize=auto;html=1;" parent="WIyWlLk6GJQsqaUBKTNV-1" source="UGwLT5LjvOKNq53BJIgy-154" target="UGwLT5LjvOKNq53BJIgy-155" edge="1">
                    <mxGeometry relative="1" as="geometry"/>
                </mxCell>
                <mxCell id="UGwLT5LjvOKNq53BJIgy-154" value="click on verify button" style="whiteSpace=wrap;html=1;rounded=0;" parent="WIyWlLk6GJQsqaUBKTNV-1" vertex="1">
                    <mxGeometry x="230" y="4120" width="120" height="60" as="geometry"/>
                </mxCell>
                <mxCell id="UGwLT5LjvOKNq53BJIgy-158" value="" style="edgeStyle=orthogonalEdgeStyle;rounded=0;orthogonalLoop=1;jettySize=auto;html=1;" parent="WIyWlLk6GJQsqaUBKTNV-1" source="UGwLT5LjvOKNq53BJIgy-155" target="UGwLT5LjvOKNq53BJIgy-157" edge="1">
                    <mxGeometry relative="1" as="geometry"/>
                </mxCell>
                <mxCell id="UGwLT5LjvOKNq53BJIgy-162" value="no" style="edgeLabel;html=1;align=center;verticalAlign=middle;resizable=0;points=[];rounded=0;" parent="UGwLT5LjvOKNq53BJIgy-158" vertex="1" connectable="0">
                    <mxGeometry x="-0.2333" relative="1" as="geometry">
                        <mxPoint as="offset"/>
                    </mxGeometry>
                </mxCell>
                <mxCell id="UGwLT5LjvOKNq53BJIgy-160" value="" style="edgeStyle=orthogonalEdgeStyle;rounded=0;orthogonalLoop=1;jettySize=auto;html=1;" parent="WIyWlLk6GJQsqaUBKTNV-1" source="UGwLT5LjvOKNq53BJIgy-155" target="UGwLT5LjvOKNq53BJIgy-159" edge="1">
                    <mxGeometry relative="1" as="geometry"/>
                </mxCell>
                <mxCell id="UGwLT5LjvOKNq53BJIgy-161" value="yes" style="edgeLabel;html=1;align=center;verticalAlign=middle;resizable=0;points=[];rounded=0;" parent="UGwLT5LjvOKNq53BJIgy-160" vertex="1" connectable="0">
                    <mxGeometry x="-0.3556" y="1" relative="1" as="geometry">
                        <mxPoint as="offset"/>
                    </mxGeometry>
                </mxCell>
                <mxCell id="UGwLT5LjvOKNq53BJIgy-155" value="is&lt;div&gt;otp&lt;/div&gt;&lt;div&gt;valid?&lt;/div&gt;" style="rhombus;whiteSpace=wrap;html=1;rounded=0;" parent="WIyWlLk6GJQsqaUBKTNV-1" vertex="1">
                    <mxGeometry x="250" y="4210" width="80" height="80" as="geometry"/>
                </mxCell>
                <mxCell id="UGwLT5LjvOKNq53BJIgy-157" value="Display error message&lt;div&gt;&quot;Invalid Otp&quot;&lt;/div&gt;" style="whiteSpace=wrap;html=1;rounded=0;" parent="WIyWlLk6GJQsqaUBKTNV-1" vertex="1">
                    <mxGeometry x="390" y="4220" width="120" height="60" as="geometry"/>
                </mxCell>
                <mxCell id="UGwLT5LjvOKNq53BJIgy-159" value="Display success message&lt;div&gt;&quot;Phone number is verified&quot;&lt;/div&gt;&lt;div&gt;And&lt;/div&gt;&lt;div&gt;Redirects to Login page&lt;/div&gt;" style="whiteSpace=wrap;html=1;rounded=0;" parent="WIyWlLk6GJQsqaUBKTNV-1" vertex="1">
                    <mxGeometry x="200" y="4330" width="180" height="110" as="geometry"/>
                </mxCell>
                <mxCell id="LA6dg2UaORzMANeJtiS0-0" value="&lt;h2&gt;Referral Points&lt;/h2&gt;After completing Step 1&lt;br&gt;The user and user profile created and added referredBy field in the user which is referrer email.&lt;div&gt;&lt;br&gt;&lt;/div&gt;&lt;div&gt;The user Network Level (NWL) will be = referrer NWL + 1&lt;/div&gt;&lt;div&gt;&lt;br&gt;&lt;/div&gt;&lt;div&gt;&lt;div style=&quot;text-align: left;&quot;&gt;&lt;span style=&quot;background-color: initial;&quot;&gt;1. The referrer will get 500 referral points&lt;/span&gt;&lt;/div&gt;&lt;div style=&quot;text-align: left;&quot;&gt;&lt;span style=&quot;background-color: initial;&quot;&gt;2. Referrer of that referrer will get 250 points ( 500/2 )&lt;/span&gt;&lt;/div&gt;&lt;/div&gt;&lt;div style=&quot;text-align: left;&quot;&gt;3. 125 (500/4)&lt;/div&gt;&lt;div style=&quot;text-align: left;&quot;&gt;4. 62.5 (500/8)&lt;/div&gt;" style="whiteSpace=wrap;html=1;rounded=0;" parent="WIyWlLk6GJQsqaUBKTNV-1" vertex="1">
                    <mxGeometry x="590" y="2880" width="222.5" height="270" as="geometry"/>
                </mxCell>
            </root>
        </mxGraphModel>
    </diagram>
</mxfile>
